<?xml version="1.0" encoding="UTF-8"?>
<!-- Created with Inkscape (http://www.inkscape.org/) -->
<svg width="50mm" height="50mm" version="1.1" viewBox="0 0 50 50" xmlns="http://www.w3.org/2000/svg">
 <g transform="translate(-34.06 -71.227)">
  <g transform="translate(125.03 -5.0669)">
   <rect x="-90.967" y="76.294" width="50" height="50" fill="#fff" fill-opacity=".32634" opacity=".3" stroke-width=".26458"/>
   <rect x="-88.467" y="78.794" width="45" height="45" ry="3" fill="#dbdee3" stroke="#5278a6" stroke-width=".26458"/>
   <rect x="-85.141" y="91.294" width="38.347" height="20" ry="1" fill="none" stroke="#373e48" stroke-width=".33202"/>
   <g transform="translate(1.3846 .77809)">
    <g transform="translate(-1.5902)">
     <g transform="matrix(.67568 0 0 .67568 -24.044 32.016)">
      <rect x="-79.09" y="93.781" width="8.1143" height="7.0217" ry=".4" fill="#aaf"/>
      <g fill="none">
       <path d="m-77.193 99.739h4.3199" stroke="#dbdee3" stroke-width=".5"/>
       <g stroke="#373e48" stroke-width=".253">
        <rect x="-77.013" y="94.72" width="3.9604" height="3.9604" ry=".079208"/>
        <path d="m-77.011 98.103s0.2716-2.2938 0.85181-2.2938c0.58021 0 0.61421 1.5551 1.1288 1.5551 0.51457 0 0.27646-0.60403 0.6519-0.60403 0.37545 0 1.3266 1.3427 1.3266 1.3427"/>
        <circle cx="-73.878" cy="95.941" r=".39604"/>
       </g>
      </g>
     </g>
     <g transform="matrix(.67568 0 0 .67568 -18.057 32.016)">
      <rect x="-79.09" y="93.781" width="8.1143" height="7.0217" ry=".4" fill="#aaf"/>
      <g fill="none">
       <path d="m-77.193 99.739h4.3199" stroke="#dbdee3" stroke-width=".5"/>
       <g stroke="#373e48" stroke-width=".253">
        <rect x="-77.013" y="94.72" width="3.9604" height="3.9604" ry=".079208"/>
        <path d="m-77.011 98.103s0.2716-2.2938 0.85181-2.2938c0.58021 0 0.61421 1.5551 1.1288 1.5551 0.51457 0 0.27646-0.60403 0.6519-0.60403 0.37545 0 1.3266 1.3427 1.3266 1.3427"/>
        <circle cx="-73.878" cy="95.941" r=".39604"/>
       </g>
      </g>
     </g>
     <g transform="matrix(.67568 0 0 .67568 -12.07 32.016)">
      <rect x="-79.09" y="93.781" width="8.1143" height="7.0217" ry=".4" fill="#aaf"/>
      <g fill="none">
       <path d="m-77.193 99.739h4.3199" stroke="#dbdee3" stroke-width=".5"/>
       <g stroke="#373e48" stroke-width=".253">
        <rect x="-77.013" y="94.72" width="3.9604" height="3.9604" ry=".079208"/>
        <path d="m-77.011 98.103s0.2716-2.2938 0.85181-2.2938c0.58021 0 0.61421 1.5551 1.1288 1.5551 0.51457 0 0.27646-0.60403 0.6519-0.60403 0.37545 0 1.3266 1.3427 1.3266 1.3427"/>
        <circle cx="-73.878" cy="95.941" r=".39604"/>
       </g>
      </g>
     </g>
     <g transform="matrix(.67568 0 0 .67568 -6.0832 32.016)">
      <rect x="-79.09" y="93.781" width="8.1143" height="7.0217" ry=".4" fill="#aaf"/>
      <g fill="none">
       <path d="m-77.193 99.739h4.3199" stroke="#dbdee3" stroke-width=".5"/>
       <g stroke="#373e48" stroke-width=".253">
        <rect x="-77.013" y="94.72" width="3.9604" height="3.9604" ry=".079208"/>
        <path d="m-77.011 98.103s0.2716-2.2938 0.85181-2.2938c0.58021 0 0.61421 1.5551 1.1288 1.5551 0.51457 0 0.27646-0.60403 0.6519-0.60403 0.37545 0 1.3266 1.3427 1.3266 1.3427"/>
        <circle cx="-73.878" cy="95.941" r=".39604"/>
       </g>
      </g>
     </g>
     <g transform="matrix(.67568 0 0 .67568 -.096405 32.016)">
      <rect x="-79.09" y="93.781" width="8.1143" height="7.0217" ry=".4" fill="#aaf"/>
      <g fill="none">
       <path d="m-77.193 99.739h4.3199" stroke="#dbdee3" stroke-width=".5"/>
       <g stroke="#373e48" stroke-width=".253">
        <rect x="-77.013" y="94.72" width="3.9604" height="3.9604" ry=".079208"/>
        <path d="m-77.011 98.103s0.2716-2.2938 0.85181-2.2938c0.58021 0 0.61421 1.5551 1.1288 1.5551 0.51457 0 0.27646-0.60403 0.6519-0.60403 0.37545 0 1.3266 1.3427 1.3266 1.3427"/>
        <circle cx="-73.878" cy="95.941" r=".39604"/>
       </g>
      </g>
     </g>
     <g transform="matrix(.67568 0 0 .67568 -30.031 32.016)">
      <rect x="-79.09" y="93.781" width="8.1143" height="7.0217" ry=".4" fill="#aaf"/>
      <g fill="none">
       <path d="m-77.193 99.739h4.3199" stroke="#dbdee3" stroke-width=".5"/>
       <g stroke="#373e48" stroke-width=".253">
        <rect x="-77.013" y="94.72" width="3.9604" height="3.9604" ry=".079208"/>
        <path d="m-77.011 98.103s0.2716-2.2938 0.85181-2.2938c0.58021 0 0.61421 1.5551 1.1288 1.5551 0.51457 0 0.27646-0.60403 0.6519-0.60403 0.37545 0 1.3266 1.3427 1.3266 1.3427"/>
        <circle cx="-73.878" cy="95.941" r=".39604"/>
       </g>
      </g>
     </g>
    </g>
    <g transform="translate(-1.5902 5.5246)">
     <g transform="matrix(.67568 0 0 .67568 -24.044 32.016)">
      <rect x="-79.09" y="93.781" width="8.1143" height="7.0217" ry=".4" fill="#aaf"/>
      <g fill="none">
       <path d="m-77.193 99.739h4.3199" stroke="#dbdee3" stroke-width=".5"/>
       <g stroke="#373e48" stroke-width=".253">
        <rect x="-77.013" y="94.72" width="3.9604" height="3.9604" ry=".079208"/>
        <path d="m-77.011 98.103s0.2716-2.2938 0.85181-2.2938c0.58021 0 0.61421 1.5551 1.1288 1.5551 0.51457 0 0.27646-0.60403 0.6519-0.60403 0.37545 0 1.3266 1.3427 1.3266 1.3427"/>
        <circle cx="-73.878" cy="95.941" r=".39604"/>
       </g>
      </g>
     </g>
     <g transform="matrix(.67568 0 0 .67568 -18.057 32.016)">
      <rect x="-79.09" y="93.781" width="8.1143" height="7.0217" ry=".4" fill="#aaf"/>
      <g fill="none">
       <path d="m-77.193 99.739h4.3199" stroke="#dbdee3" stroke-width=".5"/>
       <g stroke="#373e48" stroke-width=".253">
        <rect x="-77.013" y="94.72" width="3.9604" height="3.9604" ry=".079208"/>
        <path d="m-77.011 98.103s0.2716-2.2938 0.85181-2.2938c0.58021 0 0.61421 1.5551 1.1288 1.5551 0.51457 0 0.27646-0.60403 0.6519-0.60403 0.37545 0 1.3266 1.3427 1.3266 1.3427"/>
        <circle cx="-73.878" cy="95.941" r=".39604"/>
       </g>
      </g>
     </g>
     <g transform="matrix(.67568 0 0 .67568 -12.07 32.016)">
      <rect x="-79.09" y="93.781" width="8.1143" height="7.0217" ry=".4" fill="#aaf"/>
      <g fill="none">
       <path d="m-77.193 99.739h4.3199" stroke="#dbdee3" stroke-width=".5"/>
       <g stroke="#373e48" stroke-width=".253">
        <rect x="-77.013" y="94.72" width="3.9604" height="3.9604" ry=".079208"/>
        <path d="m-77.011 98.103s0.2716-2.2938 0.85181-2.2938c0.58021 0 0.61421 1.5551 1.1288 1.5551 0.51457 0 0.27646-0.60403 0.6519-0.60403 0.37545 0 1.3266 1.3427 1.3266 1.3427"/>
        <circle cx="-73.878" cy="95.941" r=".39604"/>
       </g>
      </g>
     </g>
     <g transform="matrix(.67568 0 0 .67568 -6.0832 32.016)">
      <rect x="-79.09" y="93.781" width="8.1143" height="7.0217" ry=".4" fill="#aaf"/>
      <g fill="none">
       <path d="m-77.193 99.739h4.3199" stroke="#dbdee3" stroke-width=".5"/>
       <g stroke="#373e48" stroke-width=".253">
        <rect x="-77.013" y="94.72" width="3.9604" height="3.9604" ry=".079208"/>
        <path d="m-77.011 98.103s0.2716-2.2938 0.85181-2.2938c0.58021 0 0.61421 1.5551 1.1288 1.5551 0.51457 0 0.27646-0.60403 0.6519-0.60403 0.37545 0 1.3266 1.3427 1.3266 1.3427"/>
        <circle cx="-73.878" cy="95.941" r=".39604"/>
       </g>
      </g>
     </g>
     <g transform="matrix(.67568 0 0 .67568 -.096405 32.016)">
      <rect x="-79.09" y="93.781" width="8.1143" height="7.0217" ry=".4" fill="#aaf"/>
      <g fill="none">
       <path d="m-77.193 99.739h4.3199" stroke="#dbdee3" stroke-width=".5"/>
       <g stroke="#373e48" stroke-width=".253">
        <rect x="-77.013" y="94.72" width="3.9604" height="3.9604" ry=".079208"/>
        <path d="m-77.011 98.103s0.2716-2.2938 0.85181-2.2938c0.58021 0 0.61421 1.5551 1.1288 1.5551 0.51457 0 0.27646-0.60403 0.6519-0.60403 0.37545 0 1.3266 1.3427 1.3266 1.3427"/>
        <circle cx="-73.878" cy="95.941" r=".39604"/>
       </g>
      </g>
     </g>
     <g transform="matrix(.67568 0 0 .67568 -30.031 32.016)">
      <rect x="-79.09" y="93.781" width="8.1143" height="7.0217" ry=".4" fill="#aaf"/>
      <g fill="none">
       <path d="m-77.193 99.739h4.3199" stroke="#dbdee3" stroke-width=".5"/>
       <g stroke="#373e48" stroke-width=".253">
        <rect x="-77.013" y="94.72" width="3.9604" height="3.9604" ry=".079208"/>
        <path d="m-77.011 98.103s0.2716-2.2938 0.85181-2.2938c0.58021 0 0.61421 1.5551 1.1288 1.5551 0.51457 0 0.27646-0.60403 0.6519-0.60403 0.37545 0 1.3266 1.3427 1.3266 1.3427"/>
        <circle cx="-73.878" cy="95.941" r=".39604"/>
       </g>
      </g>
     </g>
    </g>
   </g>
  </g>
 </g>
</svg>
