<?xml version="1.0" encoding="UTF-8"?>
<!-- Created with Inkscape (http://www.inkscape.org/) -->
<svg width="50mm" height="50mm" version="1.1" viewBox="0 0 50 50" xmlns="http://www.w3.org/2000/svg">
 <g transform="translate(-82.752 -114.46)">
  <g transform="translate(72.018 175.76)">
   <rect x="10.734" y="-61.295" width="50" height="50" fill="#fff" opacity=".3" stroke-width=".26458"/>
   <rect x="13.234" y="-58.795" width="45" height="45" ry="3" fill="#dbdee3" stroke="#5278a6" stroke-width=".26458"/>
   <g transform="translate(-175.67 -165.49)" fill="none" stroke="#373e48">
    <rect x="194.2" y="121" width="34.41" height="16.39" ry=".81952" stroke-width=".31467"/>
    <g>
     <g stroke-width=".36525">
      <path d="m196.68 127.53h10.133"/>
      <path d="m196.68 129.12h10.133"/>
      <path d="m196.68 130.7h10.133"/>
      <path d="m196.68 132.28h10.133"/>
     </g>
     <g stroke-width=".26754">
      <path d="m199.03 133.81h5.4367"/>
      <path d="m209.41 127.78h5.4367"/>
      <path d="m209.41 130.99h5.4367"/>
      <path d="m209.41 134.21h5.4367"/>
      <path d="m219.78 127.78h5.4367"/>
      <path d="m219.78 130.99h5.4367"/>
      <path d="m219.78 134.21h5.4367"/>
     </g>
     <g stroke-width=".60876">
      <path d="m199.64 124.39h4.2107"/>
      <path d="m210.02 124.39h4.2107"/>
      <path d="m220.4 124.39h4.2107"/>
     </g>
    </g>
   </g>
  </g>
 </g>
</svg>
