<?xml version="1.0" encoding="UTF-8"?>
<!-- Created with Inkscape (http://www.inkscape.org/) -->
<svg width="50mm" height="50mm" version="1.1" viewBox="0 0 50 50" xmlns="http://www.w3.org/2000/svg">
 <g transform="translate(-77.188 -83.667)">
  <g transform="translate(-57.211 148.7)">
   <rect x="134.4" y="-65.037" width="50" height="50" fill="#fff" opacity=".3" stroke-width=".26458"/>
   <rect x="136.9" y="-62.537" width="45" height="45" ry="3" fill="#dbdee3" stroke="#5278a6" stroke-width=".26458"/>
   <g transform="translate(-52.125 -180.53)">
    <rect x="194.2" y="131.85" width="34.41" height="16.39" ry=".81952" fill="none" stroke="#373e48" stroke-width=".31467"/>
    <g transform="translate(.5314 .89996)">
     <g transform="translate(56.577 176.89)">
      <g fill="none" stroke="#373e48" stroke-width=".60876">
       <path d="m139.71-31.485h4.2107"/>
       <path d="m145.95-31.485h4.2107"/>
       <path d="m152.19-31.485h4.2107"/>
       <path d="m158.43-31.485h4.2107"/>
       <path d="m164.67-31.485h4.2107"/>
      </g>
     </g>
     <g transform="matrix(.625 0 0 .625 146.89 56.829)">
      <rect x="94.371" y="121.2" width="16" height="16" ry=".68945" fill="#aaf"/>
      <g fill="none" stroke="#373e48" stroke-width=".8096">
       <rect x="96.034" y="122.86" width="12.673" height="12.673" ry=".25347"/>
       <path d="m96.042 133.68s0.86912-7.3402 2.7258-7.3402c1.8567 0 1.9655 4.9764 3.6121 4.9764s0.88467-1.9329 2.0861-1.9329c1.2014 0 4.2452 4.2967 4.2452 4.2967"/>
       <circle cx="106.07" cy="126.77" r="1.2673"/>
      </g>
     </g>
    </g>
   </g>
  </g>
 </g>
</svg>
