<?xml version="1.0" encoding="UTF-8"?>
<!-- Created with Inkscape (http://www.inkscape.org/) -->
<svg width="50mm" height="50mm" version="1.1" viewBox="0 0 50 50" xmlns="http://www.w3.org/2000/svg">
 <g transform="translate(-145.39 -147.77)">
  <rect x="145.39" y="147.77" width="50" height="50" fill="#fff" opacity=".3" stroke-width=".26458"/>
  <rect x="147.89" y="150.27" width="45" height="45" ry="3" fill="#dbdee3" stroke="#5278a6" stroke-width=".26458"/>
  <g transform="translate(8.9819 43.575)">
   <g fill="none" stroke="#373e48">
    <g>
     <rect transform="scale(-1,1)" x="-178.61" y="121" width="34.41" height="16.39" ry=".81952" stroke-width=".31467"/>
     <g>
      <path d="m158.04 122.7h-10.133" stroke-width=".36525"/>
      <path d="m155.08 135.82h-4.2107" stroke-width=".60876"/>
      <path d="m160.89 126.47h-15.828" stroke-width=".30803"/>
     </g>
    </g>
    <path d="m160.89 132.04h-15.828" stroke-width=".30794px"/>
    <path d="m160.89 129.26h-15.828" stroke-width=".30794px"/>
   </g>
   <rect x="162.44" y="121.2" width="16" height="16" ry=".68945" fill="#aaf"/>
   <g fill="none" stroke="#373e48" stroke-width=".8096">
    <rect x="164.1" y="122.86" width="12.673" height="12.673" ry=".25347"/>
    <path d="m164.11 133.68s0.86911-7.3402 2.7258-7.3402 1.9655 4.9764 3.6121 4.9764 0.88467-1.9329 2.0861-1.9329c1.2014 0 4.2452 4.2967 4.2452 4.2967"/>
    <circle cx="174.13" cy="126.77" r="1.2673"/>
   </g>
  </g>
 </g>
</svg>
