<?xml version="1.0" encoding="UTF-8"?>
<!-- Created with Inkscape (http://www.inkscape.org/) -->
<svg width="17.645mm" height="20mm" version="1.1" viewBox="0 0 17.645 20" xmlns="http://www.w3.org/2000/svg">
 <g transform="translate(-65.854 -118.21)">
  <g transform="matrix(1.1311 0 0 1.1311 465.31 -419.68)" clip-rule="evenodd" shape-rendering="geometricPrecision" stroke-width=".01">
   <path class="fil17" d="m-351.42 481.18c0.14-0.33 0.28-0.67 0.48-0.97 0.24 0.12 0.48 0.25 0.72 0.37 0.09 0.08 0.2 0.02 0.29-0.01 0.27-0.1 0.54-0.31 0.83-0.22-0.09 0.23-0.25 0.41-0.4 0.6-0.28 0.33-0.57 0.67-0.78 1.05-0.06-0.28-0.16-0.56-0.29-0.82-0.06-0.01-0.11 0.04-0.16 0.06-0.28 0.14-0.55 0.32-0.83 0.45 0.02-0.17 0.09-0.34 0.14-0.51zm11.02-0.61c0.24-0.12 0.46-0.25 0.71-0.36 0.27 0.46 0.5 0.96 0.62 1.49-0.34-0.17-0.65-0.39-1-0.53-0.13 0.27-0.22 0.54-0.29 0.83-0.26-0.47-0.64-0.87-0.97-1.29-0.08-0.11-0.18-0.22-0.19-0.36 0.35-0.09 0.65 0.21 0.98 0.27 0.05 0 0.1-0.03 0.14-0.05zm-5.97 5.72c0.16 0.12 0.38 0.15 0.57 0.09 0.16-0.04 0.33-0.04 0.47 0.06-0.01 0.33 0 0.66-0.01 0.99-0.35-0.25-0.8-0.12-1.2-0.15 0.05-0.33 0.11-0.66 0.17-0.99zm1.59 0.11c0.18 0.03 0.37 0 0.52-0.11 0.05 0.33 0.12 0.66 0.17 0.99-0.24 0-0.47-0.01-0.71 0-0.17 0-0.36 0.03-0.5 0.15v-0.99c0.15-0.11 0.35-0.09 0.52-0.04zm-3.87 4.99c0.2-0.04 0.43-0.07 0.59 0.08 0.01 0.19-0.02 0.38-0.06 0.57-0.21-0.11-0.46-0.02-0.69 0.02-0.71 0.17-1.38 0.55-2.13 0.59-0.29 0.01-0.59 0.03-0.87-0.06 0.32-0.05 0.72-0.04 0.94-0.32-0.13-0.07-0.25-0.17-0.34-0.29 0.44 0.08 0.89-0.01 1.31-0.17 0.42-0.13 0.82-0.32 1.25-0.42zm5.97 0.15c-0.01-0.12 0.14-0.15 0.23-0.17 0.33-0.03 0.65 0.1 0.96 0.21 0.63 0.22 1.29 0.53 1.97 0.4-0.09 0.12-0.21 0.22-0.34 0.3 0.23 0.27 0.62 0.27 0.94 0.31-0.47 0.13-0.98 0.06-1.46-0.02-0.58-0.18-1.14-0.43-1.73-0.55-0.17-0.03-0.35-0.07-0.5 0.02-0.04-0.17-0.06-0.33-0.07-0.5z" fill="#fff" image-rendering="optimizeQuality"/>
   <path class="fil18" d="m-345.81 475.55h0.97c0.07 0.01 0.15 0.02 0.22 0.03 1.44 0.12 2.83 0.68 3.95 1.6 0.83 0.67 1.5 1.53 1.98 2.49-0.3 0.16-0.61 0.3-0.9 0.48 0.23 0.36 0.41 0.74 0.55 1.14 0.05 0.18 0.11 0.36 0.11 0.55-0.37-0.19-0.73-0.41-1.1-0.6-0.17 0.33-0.25 0.68-0.32 1.04-0.08-0.16-0.16-0.32-0.27-0.46-0.01 1.8 0 3.6 0 5.4 0.02 1.11-0.34 2.25-1.11 3.07-0.5 0.57-1.18 0.96-1.88 1.24-0.4 0.14-0.82 0.23-1.24 0.3-0.36 0.02-0.72 0.02-1.08 0-0.24-0.05-0.49-0.08-0.73-0.15-0.17-0.04-0.34-0.11-0.51-0.15-0.03-0.03-0.08-0.05-0.12-0.07-0.88-0.35-1.66-0.97-2.14-1.78-0.46-0.76-0.64-1.67-0.62-2.55v-5.26c-0.09 0.13-0.16 0.27-0.23 0.41-0.08-0.36-0.16-0.71-0.33-1.04-0.37 0.19-0.73 0.42-1.1 0.6 0.06-0.61 0.35-1.17 0.66-1.7-0.3-0.16-0.6-0.31-0.89-0.47 0.45-0.93 1.1-1.78 1.9-2.44 1.12-0.93 2.52-1.51 3.97-1.65 0.09-0.01 0.17-0.02 0.26-0.03zm-3.4 1.35c-1.03 0.65-1.87 1.59-2.44 2.67 0.44 0.24 0.88 0.47 1.31 0.7 0.59-1.1 1.53-2.01 2.66-2.51 0.77-0.34 1.6-0.52 2.43-0.51 1.35 0.01 2.7 0.52 3.7 1.43 0.52 0.44 0.92 1 1.25 1.59 0.43-0.23 0.87-0.46 1.31-0.69-0.53-1.02-1.31-1.91-2.26-2.56-1.18-0.82-2.62-1.26-4.06-1.26-1.37 0-2.75 0.39-3.9 1.14zm3.38 0.6c-0.15 0.01-0.29 0.03-0.44 0.05-0.13 0.01-0.27 0.02-0.39 0.09-0.09 0.02-0.17 0.04-0.26 0.07-0.05 0.01-0.09 0.03-0.14 0.05-0.18 0.06-0.36 0.12-0.52 0.2-0.05 0.02-0.1 0.04-0.14 0.06-0.17 0.09-0.35 0.18-0.51 0.29-0.05 0.02-0.08 0.05-0.12 0.08-0.18 0.11-0.35 0.24-0.5 0.38-0.05 0.03-0.09 0.06-0.13 0.1-0.15 0.16-0.32 0.31-0.46 0.48-0.03 0.04-0.06 0.07-0.09 0.11-0.11 0.12-0.2 0.25-0.29 0.39-0.16 0.23-0.29 0.47-0.42 0.72l0.02 0.01c-0.24-0.12-0.48-0.25-0.72-0.37-0.2 0.3-0.34 0.64-0.48 0.97-0.05 0.17-0.12 0.34-0.14 0.51 0.28-0.13 0.55-0.31 0.83-0.45 0.05-0.02 0.1-0.07 0.16-0.06 0.13 0.26 0.23 0.54 0.29 0.82 0.21-0.38 0.5-0.72 0.78-1.05 0.15-0.19 0.31-0.37 0.4-0.6 0.03 0.02 0.07 0.04 0.1 0.06-0.1 0.31-0.37 0.55-0.55 0.82 0.62-0.01 1.23 0 1.85-0.01-0.01 0.04-0.01 0.07-0.01 0.11v5.73c0 0.12-0.01 0.25 0.01 0.37 0.01-0.14 0.01-0.28 0.01-0.41 0-1.93 0.01-3.85 0-5.78 0.02 0.06 0 0.12 0.01 0.18v5.96c0.02 0.81 0.61 1.52 1.35 1.82 0.97 0.42 2.17 0.1 2.85-0.68 0.27-0.31 0.44-0.7 0.47-1.11 0.03-0.06 0.02-0.13 0.02-0.19v-5.67c0-0.11 0-0.21 0.02-0.32-0.01 0-0.03 0.01-0.03 0.02v-0.02c0.63-0.01 1.27 0 1.91-0.01-0.18-0.27-0.46-0.49-0.54-0.81 0.03-0.02 0.07-0.05 0.11-0.06 0.01 0.14 0.11 0.25 0.19 0.36 0.33 0.42 0.71 0.82 0.97 1.29 0.07-0.29 0.16-0.56 0.29-0.83 0.35 0.14 0.66 0.36 1 0.53-0.12-0.53-0.35-1.03-0.62-1.49-0.25 0.11-0.47 0.24-0.71 0.36-0.13-0.25001-0.26-0.49001-0.42-0.72001-0.11-0.17-0.23-0.33-0.37-0.48-0.03-0.04-0.06-0.08-0.09-0.11-0.14-0.17-0.3-0.32-0.47-0.46-0.03-0.04-0.07-0.07-0.11-0.1-0.16-0.13-0.33-0.25-0.5-0.36-0.04-0.03-0.08-0.06-0.12-0.08-0.17-0.1-0.34-0.2-0.52-0.27-0.04-0.03-0.08-0.05-0.13-0.06-0.17-0.07-0.34-0.15-0.52-0.19-0.04-0.02-0.08-0.03-0.13-0.04-0.13-0.05-0.27-0.08-0.4-0.11v-0.02c-0.08-0.02-0.17-0.02-0.25-0.02-0.12-0.03-0.24-0.04-0.36-0.05-0.1-0.04-0.2-0.01-0.3-0.02-0.17-0.01-0.34 0-0.51 0-0.08 0-0.16-0.01-0.23 0.02zm-3.94 4.01c-0.01 1.75 0 3.51 0 5.26-0.01 0.63 0 1.27 0.19 1.87 0.2 0.7 0.61 1.34 1.16 1.82 0.62 0.53 1.38 0.87 2.18 1.03 1.07 0.21 2.2 0 3.17-0.51 0.69-0.36 1.29-0.91 1.66-1.6 0.35-0.64 0.51-1.37 0.51-2.09 0-1.93 0-3.86-0.01-5.78-0.6-0.01-1.21-0.01-1.82 0v5.69c0.01 0.45-0.11 0.91-0.37 1.29-0.42 0.61-1.11 1-1.83 1.14-0.99 0.18-2.07-0.26-2.65-1.09-0.25-0.36-0.38-0.79-0.39-1.23v-5.8c-0.6-0.01-1.2-0.01-1.8 0z" fill="#cda148" image-rendering="optimizeQuality"/>
   <path class="fil19" d="m-349.21 476.9c1.15-0.75 2.53-1.14 3.9-1.14 1.44 0 2.88 0.44 4.06 1.26 0.95 0.65 1.73 1.54 2.26 2.56-0.44 0.23-0.88 0.46-1.31 0.69-0.33-0.59-0.73-1.15-1.25-1.59-1-0.91-2.35-1.42-3.7-1.43-0.83-0.01-1.66 0.17-2.43 0.51-1.13 0.5-2.07 1.41-2.66 2.51-0.43-0.23-0.87-0.46-1.31-0.7 0.57-1.08 1.41-2.02 2.44-2.67zm3.99-0.76c-0.02 0.24-0.04 0.49-0.05 0.74 0.16 0 0.35 0.06 0.5-0.03 0.24-0.13 0.24-0.53-0.01-0.65-0.14-0.06-0.29-0.05-0.44-0.06zm-0.61 0.02c-0.07 0.25-0.13 0.5-0.19 0.75 0.06 0 0.12 0 0.18-0.01 0.01-0.05 0.03-0.09 0.04-0.14 0.06-0.01 0.13-0.01 0.2-0.01 0.01 0.04 0.03 0.09 0.05 0.13 0.07 0 0.15 0 0.23-0.01-0.09-0.24-0.18-0.49-0.28-0.73-0.08 0.01-0.15 0.02-0.23 0.02zm-0.95 0.13c0.03 0.24 0.08 0.48 0.12 0.73 0.15-0.04 0.33-0.03 0.46-0.12 0.22-0.16 0.16-0.54-0.09-0.64-0.16-0.06-0.33 0.01-0.49 0.03zm2.67-0.04c-0.06 0.24-0.11 0.48-0.17 0.72 0.06 0.02 0.12 0.03 0.18 0.05 0.04-0.15 0.07-0.29 0.1-0.43 0.05 0.16 0.11 0.32 0.16 0.49 0.06 0.01 0.12 0.03 0.18 0.04 0.06-0.24 0.11-0.48 0.17-0.72-0.06-0.02-0.12-0.03-0.18-0.04-0.04 0.12-0.05 0.24-0.09 0.36-0.04-0.14-0.09-0.28-0.14-0.42-0.07-0.02-0.14-0.03-0.21-0.05zm-3.07 0.15c0.06 0.23 0.13 0.47 0.19 0.71 0.07-0.02 0.15-0.03 0.22-0.06-0.06-0.24-0.13-0.48-0.19-0.71-0.07 0.01-0.15 0.03-0.22 0.06zm-0.62 0.25c-0.1 0.13 0.01 0.35 0.18 0.34 0.09 0.02 0.23-0.07 0.28 0.04-0.06 0.06-0.17 0.08-0.24 0.01-0.06 0.03-0.12 0.07-0.18 0.1 0.13 0.21 0.45 0.14 0.58-0.03 0.1-0.11 0.05-0.3-0.09-0.35-0.11-0.03-0.23 0.02-0.34 0.01 0-0.01-0.01-0.04-0.01-0.06 0.05-0.05 0.14-0.05 0.2-0.01 0.05-0.03 0.1-0.07 0.15-0.12-0.14-0.15-0.41-0.09-0.53 0.07zm4.65-0.13c-0.16 0.2-0.31 0.41-0.46 0.61 0.06 0.02 0.11 0.05 0.17 0.06 0.03-0.04 0.06-0.08 0.09-0.11 0.06 0.01 0.12 0.04 0.19 0.06-0.01 0.05-0.01 0.1-0.01 0.15 0.07 0.03 0.14 0.06 0.22 0.07 0-0.25 0.03-0.51 0.03-0.77-0.08-0.02-0.16-0.07-0.23-0.07zm-5 0.25c-0.16 0.04-0.31 0.13-0.46 0.21 0.1 0.22 0.21 0.44 0.32 0.66 0.07-0.03 0.14-0.07 0.2-0.1-0.03-0.09-0.09-0.17-0.11-0.26 0.02-0.01 0.04-0.02 0.06-0.02 0.07 0.06 0.14 0.13 0.21 0.19 0.08-0.01 0.16-0.06 0.23-0.11-0.09-0.07-0.17-0.14-0.25-0.22 0.12-0.14-0.01-0.39-0.2-0.35zm5.31 0.56c0.07 0.25 0.46 0.33 0.58 0.08-0.06-0.03-0.12-0.07-0.18-0.09-0.04 0.07-0.16 0.1-0.2 0 0.01-0.13 0.07-0.27 0.18-0.33 0.1-0.03 0.13 0.1 0.09 0.17 0.06 0.03 0.13 0.06 0.19 0.09 0.09-0.17-0.02-0.38-0.2-0.43-0.28-0.1-0.53 0.26-0.46 0.51zm-6.37 0.02c0.12 0.21 0.26 0.41 0.39 0.62 0.16-0.09 0.31-0.2 0.47-0.3-0.03-0.05-0.06-0.1-0.1-0.14-0.09 0.05-0.18 0.12-0.27 0.17-0.03-0.03-0.05-0.06-0.07-0.09 0.07-0.06 0.15-0.1 0.23-0.15-0.03-0.05-0.06-0.1-0.09-0.14-0.08 0.05-0.15 0.1-0.23 0.14-0.02-0.02-0.04-0.05-0.06-0.08 0.09-0.07 0.19-0.12 0.28-0.18-0.03-0.05-0.06-0.1-0.09-0.15-0.16 0.1-0.31 0.2-0.46 0.3zm7.26-0.29c-0.12 0.22-0.25 0.42-0.37 0.64 0.06 0.03 0.13 0.08 0.2 0.11 0.12-0.22 0.26-0.42 0.37-0.64-0.07-0.03-0.13-0.08-0.2-0.11zm0.41 0.31c-0.2 0.01-0.36 0.2-0.38 0.39-0.03 0.23 0.22 0.42 0.44 0.36 0.15-0.05 0.27-0.2 0.3-0.36 0.03-0.2-0.16-0.39-0.36-0.39zm-7.93 0.17c0.06 0.15 0.13 0.3 0.18 0.45-0.13-0.09-0.26-0.19-0.39-0.28-0.07 0.05-0.13 0.1-0.19 0.15 0.19 0.14 0.39 0.25 0.58 0.39 0.09 0.08 0.17-0.06 0.25-0.11-0.09-0.24-0.19-0.48-0.28-0.72-0.06 0.04-0.1 0.08-0.15 0.12zm8.05 0.77c0.04 0.04 0.08 0.08 0.13 0.12 0.1-0.1 0.19-0.21 0.29-0.31-0.03 0.16-0.07 0.33-0.09 0.49 0.04 0.04 0.08 0.09 0.14 0.12 0.16-0.18 0.33-0.36 0.49-0.54-0.04-0.04-0.09-0.08-0.13-0.12-0.1 0.09-0.18 0.18-0.26 0.28 0.03-0.15 0.06-0.29 0.08-0.44l-0.15-0.15c-0.18 0.18-0.34 0.37-0.5 0.55zm-8.7-0.21c0.17 0.18 0.34 0.36 0.51 0.54 0.06-0.05 0.11-0.11 0.17-0.16-0.17-0.18-0.34-0.36-0.51-0.54-0.06 0.05-0.11 0.11-0.17 0.16zm-0.25 0.26c0.09 0.09 0.19 0.16 0.29 0.25-0.15-0.03-0.3-0.06-0.44-0.08-0.05 0.05-0.1 0.11-0.15 0.16 0.19 0.17 0.37 0.34 0.56 0.49 0.04-0.04 0.08-0.09 0.12-0.13-0.11-0.1-0.22-0.19-0.32-0.29 0.16 0.03 0.33 0.06 0.49 0.09 0.04-0.04 0.09-0.09 0.12-0.14-0.18-0.16-0.36-0.33-0.55-0.49-0.04 0.04-0.08 0.09-0.12 0.14zm9.45 0.41c0.04 0.05 0.08 0.09 0.12 0.14 0.04-0.02 0.09-0.04 0.14-0.06 0.04 0.05 0.09 0.09 0.13 0.15-0.03 0.04-0.06 0.08-0.08 0.13 0.05 0.05 0.1 0.11 0.15 0.16 0.14-0.22 0.27-0.44 0.4-0.65-0.05-0.07-0.1-0.12-0.15-0.18-0.24 0.09-0.48 0.21-0.71 0.31zm-9.96 0.21c0.12 0.1 0.26 0.19 0.39 0.29 0.09 0.05-0.01 0.22-0.1 0.16-0.14-0.09-0.27-0.2-0.41-0.29-0.05 0.06-0.09 0.13-0.13 0.19 0.14 0.1 0.27 0.2 0.41 0.3 0.27 0.19 0.62-0.32 0.35-0.5-0.14-0.1-0.27-0.2-0.41-0.29-0.04 0.04-0.07 0.09-0.1 0.14zm10.45 0.36c0.1 0.14 0.2 0.28 0.31 0.42 0.05-0.04 0.1-0.07 0.14-0.11-0.05-0.08-0.11-0.15-0.17-0.23 0.15-0.12 0.3-0.22 0.45-0.33-0.04-0.07-0.09-0.13-0.13-0.18-0.2 0.13-0.4 0.29-0.6 0.43zm-4.94 0.24h0.11c0.02 0.06 0.07 0.07 0.12 0.07l0.02-0.02c0.04-0.04 0.1-0.02 0.15-0.02v0.08c0.04 0.01 0.07 0.02 0.1 0.03 0.02-0.02 0.04-0.05 0.05-0.07 0.03 0.01 0.05 0.01 0.08 0.02 0 0.03 0.01 0.06 0.02 0.09v0.03c0.04 0.02 0.07 0.05 0.12 0.05 0.03-0.01 0.06-0.01 0.09-0.01v0.1c0.03 0.03 0.06 0.07 0.11 0.07 0.02 0.01 0.04 0.01 0.07 0.01v0.1c0.02 0.04 0.04 0.08 0.09 0.1 0.01 0 0.03 0.01 0.04 0.01v0.09c0.01 0.05 0.04 0.09 0.07 0.12 0 0.01 0.01 0.02 0.02 0.02v0.08c0 0.05 0.02 0.1 0.05 0.15 0.04 0.15 0.01 0.33 0.02 0.49-0.07 0.28-0.23 0.54-0.45 0.72-0.08 0.06-0.16 0.15-0.27 0.13 0.03-0.09 0.11-0.16 0.19-0.22 0.11-0.01 0.13-0.18 0.02-0.21l-0.06-0.12c0.27-0.45 0.1-1.04-0.27-1.37 0.06 0.18 0.13 0.36 0.11 0.55 0 0.3-0.25 0.52-0.28 0.8-0.06 0.05-0.14 0.02-0.21 0.02 0.17-0.14 0.29-0.35 0.31-0.57 0.01-0.27-0.21-0.48-0.24-0.74-0.02-0.12 0.06-0.23 0.12-0.33-0.17 0.08-0.32 0.23-0.36 0.42-0.07 0.31 0.07 0.62 0.01 0.93-0.02 0.1-0.07 0.19-0.13 0.28-0.02 0.01-0.05 0.01-0.07 0.01-0.19-0.27 0.07-0.56 0.1-0.84s-0.24-0.47-0.47-0.58c0.05 0.09 0.12 0.18 0.11 0.29 0 0.26-0.24 0.43-0.28 0.68-0.02 0.18 0.1 0.35 0.24 0.45-0.04 0.01-0.08 0.01-0.12 0.02-0.01 0.03-0.02 0.07-0.03 0.1-0.13 0.02-0.11 0.21 0.01 0.22 0.06 0.05 0.13 0.1 0.17 0.18-0.06 0.07-0.13-0.01-0.19-0.04-0.21-0.15-0.37-0.37-0.47-0.6-0.06-0.12-0.03-0.25-0.04-0.38 0.01-0.1-0.02-0.2 0.02-0.29 0.03-0.05 0.04-0.1 0.01-0.15 0-0.02-0.01-0.05-0.01-0.07 0.03-0.01 0.06-0.02 0.09-0.03 0.01-0.04 0.03-0.08 0.01-0.12-0.01-0.04-0.01-0.09 0.01-0.14 0.03 0.01 0.06 0.03 0.09 0.04l0.06-0.09c0-0.01-0.01-0.03-0.02-0.04-0.02-0.04-0.02-0.11 0.03-0.14l0.02 0.01c0.03 0.02 0.05 0.04 0.07 0.06 0.05-0.04 0.11-0.09 0.06-0.16 0.01-0.02 0.02-0.05 0.03-0.07 0.02 0 0.05 0.01 0.07 0.02l0.04 0.04c0.04-0.02 0.07-0.04 0.11-0.06-0.01-0.02-0.02-0.05-0.03-0.07 0.03-0.05 0.09-0.04 0.13-0.02 0.04 0.03 0.1 0.01 0.14 0v-0.04c0.01-0.03 0.01-0.06 0.02-0.09h0.07c0.02 0.02 0.03 0.05 0.05 0.08 0.05 0.01 0.14 0.01 0.15-0.06zm-2.68 12.44c0.7-0.12 1.41-0.17 2.12-0.19 0.36 0.02 0.72 0.02 1.08 0 0.73 0.01 1.47 0.07 2.19 0.19 0.06 0.22 0.1 0.46 0.23 0.65 0.11 0.15 0.33 0.16 0.49 0.23-0.09 0.01-0.18-0.02-0.28-0.04-2.18-0.43-4.45-0.4-6.62 0.07 0.18-0.11 0.44-0.09 0.56-0.29 0.1-0.17 0.15-0.36 0.19-0.56 0.01-0.02 0.01-0.06 0.04-0.06zm2.35 0.01c-0.06 0.13-0.05 0.32 0.07 0.41 0.16 0.11 0.46 0.05 0.48-0.17-0.06 0-0.12-0.01-0.18-0.01-0.01 0.08-0.1 0.13-0.17 0.07-0.04-0.09-0.05-0.23 0.03-0.3 0.07-0.03 0.12 0.04 0.13 0.1 0.07 0 0.13 0 0.19-0.01-0.02-0.27-0.43-0.31-0.55-0.09zm1.09-0.12c-0.01 0.19-0.02 0.39-0.03 0.58 0.06 0 0.11 0 0.17 0.01 0-0.12 0.01-0.23 0.01-0.35 0.07 0.12 0.15 0.24 0.22 0.36 0.06 0 0.11 0 0.17 0.01 0.01-0.2 0.02-0.39 0.03-0.59h-0.17c0 0.1-0.01 0.2-0.01 0.3-0.06-0.11-0.13-0.21-0.2-0.31-0.06-0.01-0.13-0.01-0.19-0.01zm-2.04 0.04c-0.05 0.2-0.11 0.39-0.16 0.59 0.06 0 0.11 0 0.17-0.01 0.01-0.04 0.02-0.08 0.03-0.11 0.06-0.01 0.11-0.01 0.17-0.02 0.02 0.04 0.04 0.08 0.05 0.11 0.07 0 0.14 0 0.21-0.01-0.08-0.19-0.17-0.38-0.25-0.56-0.07 0-0.15 0-0.22 0.01zm-1.11 0.13c0.01 0.05 0.01 0.09 0.02 0.14 0.05-0.01 0.09-0.02 0.14-0.02 0.02 0.14 0.04 0.29 0.06 0.43 0.07 0 0.13-0.01 0.2-0.03-0.03-0.14-0.05-0.29-0.07-0.43 0.05-0.01 0.09-0.02 0.13-0.02 0-0.05-0.01-0.09-0.01-0.14-0.16 0.02-0.31 0.05-0.47 0.07zm4.46-0.07c-0.09 0.18-0.19 0.36-0.28 0.54 0.06 0.01 0.11 0.02 0.16 0.02 0.02-0.03 0.04-0.07 0.06-0.1 0.06 0 0.12 0.01 0.18 0.02 0 0.04 0.01 0.08 0.02 0.12 0.07 0.01 0.14 0.02 0.21 0.03-0.04-0.2-0.09-0.4-0.13-0.6-0.07-0.02-0.14-0.03-0.22-0.03z" fill="#fefefe" image-rendering="optimizeQuality"/>
   <path class="fil20" d="m-345.22 476.14c0.15 0.01 0.3 0 0.44 0.06 0.25 0.12 0.25 0.52 0.01 0.65-0.15 0.09-0.34 0.03-0.5 0.03 0.01-0.25 0.03-0.5 0.05-0.74zm0.21 0.18c-0.01 0.13-0.02 0.27-0.02 0.4 0.25 0.07 0.28-0.43 0.02-0.4zm-1.77-0.03c0.16-0.02 0.33-0.09 0.49-0.03 0.25 0.1 0.31 0.48 0.09 0.64-0.13 0.09-0.31 0.08-0.46 0.12-0.04-0.25-0.09-0.49-0.12-0.73zm0.25 0.13c0.02 0.13 0.04 0.26 0.07 0.4 0.26 0 0.17-0.5-0.07-0.4zm2.42-0.17c0.07 0.02 0.14 0.03 0.21 0.05 0.05 0.14 0.1 0.28 0.14 0.42 0.04-0.12 0.05-0.24 0.09-0.36 0.06 0.01 0.12 0.02 0.18 0.04-0.06 0.24-0.11 0.48-0.17 0.72-0.06-0.01-0.12-0.03-0.18-0.04-0.05-0.17-0.11-0.33-0.16-0.49-0.03 0.14-0.06 0.28-0.1 0.43-0.06-0.02-0.12-0.03-0.18-0.05 0.06-0.24 0.11-0.48 0.17-0.72zm-3.69 0.4c0.12-0.16 0.39-0.22 0.53-0.07-0.05 0.05-0.1 0.09-0.15 0.12-0.06-0.04-0.15-0.04-0.2 0.01 0 0.02 0.01 0.05 0.01 0.06 0.11 0.01 0.23-0.04 0.34-0.01 0.14 0.05 0.19 0.24 0.09 0.35-0.13 0.17-0.45 0.24-0.58 0.03 0.06-0.03 0.12-0.07 0.18-0.1 0.07 0.07 0.18 0.05 0.24-0.01-0.05-0.11-0.19-0.02-0.28-0.04-0.17 0.01-0.28-0.21-0.18-0.34zm-0.35 0.12c0.19-0.04 0.32 0.21 0.2 0.35 0.08 0.08 0.16 0.15 0.25 0.22-0.07 0.05-0.15 0.1-0.23 0.11-0.07-0.06-0.14-0.13-0.21-0.19-0.02 0-0.04 0.01-0.06 0.02 0.02 0.09 0.08 0.17 0.11 0.26-0.06 0.03-0.13 0.07-0.2 0.1-0.11-0.22-0.22-0.44-0.32-0.66 0.15-0.08 0.3-0.17 0.46-0.21zm-0.19 0.24c0.02 0.04 0.04 0.09 0.06 0.13 0.06-0.02 0.13-0.05 0.16-0.11-0.03-0.12-0.15-0.06-0.22-0.02zm5.5 0.32c-0.07-0.25 0.18-0.61 0.46-0.51 0.18 0.05 0.29 0.26 0.2 0.43-0.06-0.03-0.13-0.06-0.19-0.09 0.04-0.07 0.01-0.2-0.09-0.17-0.11 0.06-0.17 0.2-0.18 0.33 0.04 0.1 0.16 0.07 0.2 0 0.06 0.02 0.12 0.06 0.18 0.09-0.12 0.25-0.51 0.17-0.58-0.08zm-6.63 0.21c0.05-0.04 0.09-0.08 0.15-0.12 0.09 0.24 0.19 0.48 0.28 0.72-0.08 0.05-0.16 0.19-0.25 0.11-0.19-0.14-0.39-0.25-0.58-0.39 0.06-0.05 0.12-0.1 0.19-0.15 0.13 0.09 0.26 0.19 0.39 0.28-0.05-0.15-0.12-0.3-0.18-0.45zm-0.9 0.82c0.04-0.05 0.08-0.1 0.12-0.14 0.19 0.16 0.37 0.33 0.55 0.49-0.03 0.05-0.08 0.1-0.12 0.14-0.16-0.03-0.33-0.06-0.49-0.09 0.1 0.1 0.21 0.19 0.32 0.29-0.04 0.04-0.08 0.09-0.12 0.13-0.19-0.15-0.37-0.32-0.56-0.49 0.05-0.05 0.1-0.11 0.15-0.16 0.14 0.02 0.29 0.05 0.44 0.08-0.1-0.09-0.2-0.16-0.29-0.25zm9.45 0.41c0.23-0.1 0.47-0.22 0.71-0.31 0.05 0.06 0.1 0.11 0.15 0.18-0.13 0.21-0.26 0.43-0.4 0.65-0.05-0.05-0.1-0.11-0.15-0.16 0.02-0.05 0.05-0.09 0.08-0.13-0.04-0.06-0.09-0.1-0.13-0.15-0.05 0.02-0.1 0.04-0.14 0.06-0.04-0.05-0.08-0.09-0.12-0.14zm0.4 0c0.03 0.03 0.06 0.06 0.08 0.09 0.05-0.06 0.08-0.12 0.12-0.18-0.07 0.02-0.13 0.05-0.2 0.09zm-10.36 0.21c0.03-0.05 0.06-0.1 0.1-0.14 0.14 0.09 0.27 0.19 0.41 0.29 0.27 0.18-0.08 0.69-0.35 0.5-0.14-0.1-0.27-0.2-0.41-0.3 0.04-0.06 0.08-0.13 0.13-0.19 0.14 0.09 0.27 0.2 0.41 0.29 0.09 0.06 0.19-0.11 0.1-0.16-0.13-0.1-0.27-0.19-0.39-0.29zm10.45 0.36c0.2-0.14 0.4-0.3 0.6-0.43 0.04 0.05 0.09 0.11 0.13 0.18-0.15 0.11-0.3 0.21-0.45 0.33 0.06 0.08 0.12 0.15 0.17 0.23-0.04 0.04-0.09 0.07-0.14 0.11-0.11-0.14-0.21-0.28-0.31-0.42zm-8.98 2.55c0.09-0.01 0.17-0.01 0.25-0.01-0.01 0.09-0.04 0.24 0.08 0.25 0.24 0.02 0.47 0 0.71 0.01v0.3c-0.24 0-0.49 0.01-0.73 0-0.1 0-0.22-0.03-0.28-0.12-0.07-0.13-0.05-0.29-0.03-0.43zm7.11 0.07c0.34-0.01 0.69-0.01 1.03 0 0.01 0.08 0.01 0.17 0 0.26-0.21 0.13-0.42 0.27-0.65 0.38 0.22-0.03 0.44-0.01 0.65-0.01 0.01 0.08 0.01 0.17 0 0.25-0.34 0.01-0.69 0.01-1.03 0 0-0.1-0.01-0.2 0-0.3 0.18-0.11 0.36-0.23 0.54-0.34-0.18 0.02-0.36 0.01-0.54 0.01v-0.25zm-6.77 0.63c0.19-0.05 0.4-0.02 0.55 0.1 0.18 0.14 0.21 0.41 0.11 0.61-0.19 0.37-0.83 0.34-0.98-0.04-0.11-0.27 0.03-0.61 0.32-0.67zm0.02 0.34c-0.13 0-0.2 0.17-0.08 0.24 0.14 0.06 0.31 0.06 0.45 0.02 0.1-0.03 0.12-0.18 0.03-0.23-0.12-0.06-0.27-0.06-0.4-0.03zm6.75 0.1c0.34-0.01 0.69 0 1.03 0 0.01 0.08 0.01 0.17 0 0.26-0.2 0.13-0.41 0.26-0.62 0.38 0.21-0.02 0.42-0.01 0.63-0.01 0 0.08 0 0.17-0.01 0.26h-1.03c-0.01-0.1 0-0.2 0-0.3 0.17-0.12 0.35-0.24 0.54-0.34-0.18 0.01-0.36 0.01-0.54 0.01-0.01-0.09 0-0.18 0-0.26zm-7.11 0.66c0.34 0 0.69 0.01 1.04 0v0.61c-0.01 0.16-0.13 0.33-0.3 0.32-0.13 0.01-0.24-0.08-0.29-0.19-0.15 0.07-0.3 0.13-0.45 0.19v-0.35l0.39-0.15c0-0.04 0-0.07 0.01-0.1-0.14-0.01-0.27-0.01-0.4-0.01v-0.32zm0.62 0.32c0 0.08-0.01 0.15 0.02 0.22 0.02 0.08 0.15 0.07 0.17-0.01 0.01-0.07 0.01-0.14 0.01-0.2-0.07-0.01-0.13-0.01-0.2-0.01zm6.49 0.33c0.34-0.11 0.69-0.22 1.03-0.32 0.01 0.1 0.01 0.21 0 0.32-0.06 0.02-0.13 0.04-0.2 0.06v0.27c0.07 0.03 0.14 0.05 0.2 0.07 0.01 0.09 0.01 0.17 0 0.26-0.34-0.11-0.69-0.21-1.03-0.32v-0.34zm0.31 0.2c0.1 0.03 0.2 0.06 0.29 0.08v-0.16c-0.1 0.01-0.19 0.05-0.29 0.08zm-7.2 0.24c0.23-0.11 0.53-0.09 0.71 0.09 0.24 0.25 0.13 0.75-0.24 0.79l-0.03-0.3c0.11-0.02 0.22-0.14 0.13-0.24-0.12-0.1-0.31-0.08-0.45-0.05-0.15 0.04-0.14 0.29 0.02 0.29v-0.17h0.22c0.01 0.16 0 0.31 0 0.47h-0.58v-0.16c0.03-0.01 0.07-0.02 0.1-0.04-0.21-0.19-0.13-0.57 0.12-0.68zm6.89 0.32c0.34-0.01 0.69-0.01 1.03 0 0.01 0.09 0 0.19 0.01 0.29-0.24 0.01-0.49 0-0.73 0 0.24 0.07 0.49 0.13 0.73 0.19 0 0.07 0 0.14-0.01 0.21-0.23 0.07-0.47 0.12-0.7 0.19 0.23 0.01 0.47 0 0.7 0.01 0.01 0.08 0.01 0.16001 0 0.24001h-1.03c-0.01-0.14 0-0.28 0-0.42001 0.18-0.05 0.36-0.1 0.54-0.14999-0.18-0.06-0.36-0.09-0.54-0.15001-0.01-0.14 0-0.28 0-0.41zm-7.11 0.73c0.35 0 0.69-0.01 1.04 0v0.78h-0.24v-0.47h-0.15v0.38h-0.23c-0.01-0.13 0-0.25 0-0.38h-0.17v0.47h-0.25v-0.78zm7.11 0.58c0.34 0 0.69-0.01 1.04 0v0.31c-0.14 0.01-0.27 0-0.41 0.01v0.24h0.4c0.01 0.11 0.01 0.21 0 0.32h-1.03v-0.32h0.38v-0.24c-0.13-0.01-0.26 0-0.38 0-0.01-0.11 0-0.22 0-0.32zm-7.12 0.74c0.34-0.01 0.69-0.02 1.04-0.03 0 0.22 0.03 0.43 0 0.65-0.04 0.23-0.39 0.28-0.48 0.05-0.04 0.17-0.24 0.24-0.38 0.17-0.13-0.04-0.16-0.19-0.16-0.3-0.01-0.18-0.02-0.36-0.02-0.54zm0.65 0.28c0 0.05 0 0.11 0.01 0.17 0 0.08 0.13 0.1 0.16 0.03 0.02-0.07 0-0.14 0-0.21-0.05 0-0.11 0-0.17 0.01zm-0.41 0.01c0 0.07-0.01 0.14 0.01 0.21 0.03 0.07 0.14 0.08 0.17 0.01 0.02-0.07 0.01-0.15 0.01-0.22-0.07-0.01-0.13 0-0.19 0zm7.19 0.01c0.23-0.04 0.5 0.03 0.63 0.23 0.12 0.18 0.09 0.44-0.05 0.6-0.21 0.23-0.6 0.2-0.81 0-0.27-0.25-0.13-0.76 0.23-0.83zm-0.05 0.34c-0.1 0.03-0.11 0.18-0.02 0.23 0.13 0.07 0.3 0.1 0.44 0.07 0.11-0.02 0.13-0.2 0.02-0.24-0.13-0.06-0.29-0.09-0.44-0.06zm-7.31 0.5c0.36-0.02 0.72-0.04 1.08-0.07 0.04 0.11 0.08 0.21 0.12 0.32-0.29 0.23-0.57 0.45-0.86 0.67-0.04-0.1-0.08-0.2-0.11-0.3 0.05-0.05 0.12-0.09 0.17-0.14-0.04-0.08-0.07-0.17-0.1-0.25-0.07 0-0.14 0.01-0.21 0.01-0.04-0.08-0.07-0.16-0.09-0.24zm0.53 0.2c0.02 0.05 0.04 0.1 0.06 0.16l0.24-0.18c-0.1 0-0.2 0.01-0.3 0.02zm6.22 0.15c0.07-0.1 0.16-0.2 0.29-0.21 0.18-0.02 0.36 0.16 0.32 0.35 0.16 0.02 0.32 0.05 0.48 0.07-0.06 0.11-0.12 0.21-0.19 0.31-0.14-0.03-0.27-0.06-0.41-0.08-0.03 0.02-0.03 0.06-0.05 0.09 0.11 0.07 0.22 0.13 0.33 0.2-0.05 0.09-0.1 0.19-0.17 0.27-0.29-0.18-0.59-0.36-0.88-0.54 0.09-0.15 0.19-0.31 0.28-0.46zm0.19 0.14c-0.05 0.05-0.08 0.11-0.11 0.16 0.05 0.04 0.11 0.07 0.16 0.11 0.04-0.07 0.09-0.12 0.11-0.2 0.01-0.08-0.11-0.14-0.16-0.07zm-6 0.39c0.02-0.2 0.25-0.32 0.43-0.25 0.23 0.1 0.43 0.38 0.31 0.63-0.09-0.03-0.16-0.09-0.24-0.13 0.03-0.09 0-0.18-0.07-0.23-0.04-0.04-0.12 0-0.1 0.06 0.05 0.14 0.18 0.27 0.18 0.43 0 0.2-0.22 0.34-0.4 0.28-0.29-0.08-0.55-0.45-0.36-0.74 0.08 0.06 0.16 0.12 0.23 0.18-0.04 0.11 0.01 0.23 0.12 0.29 0.04 0.03 0.09-0.04 0.07-0.08-0.06-0.15-0.18-0.28-0.17-0.44zm4.93 0.51c0.05-0.33 0.52-0.55 0.77-0.28-0.06 0.08-0.15 0.14-0.22 0.21-0.07-0.09-0.24-0.1-0.27 0.03 0 0.16 0.12 0.3 0.24 0.4 0.12 0.09 0.3-0.06 0.22-0.2-0.05 0.04-0.1 0.07-0.14 0.11-0.05-0.06-0.09-0.12-0.13-0.18 0.12-0.1 0.25-0.18 0.37-0.28 0.12 0.16 0.23 0.32 0.35 0.48-0.05 0.03-0.09 0.05-0.13 0.08-0.03-0.02-0.06-0.04-0.09-0.05-0.03 0.28-0.38 0.44-0.62 0.31-0.22-0.12-0.38-0.37-0.35-0.63zm-4.57 0.6c0.25-0.26 0.52-0.51 0.78-0.76 0.1 0.06 0.2 0.11 0.3 0.17-0.08 0.35-0.15 0.71-0.22 1.06-0.1-0.05-0.19-0.1-0.28-0.15 0-0.07 0.02-0.14 0.04-0.2-0.07-0.06-0.16-0.1-0.24-0.15-0.05 0.05-0.1 0.1-0.16 0.15-0.07-0.04-0.14-0.08-0.22-0.12zm0.54-0.2c0.04 0.03 0.09 0.05 0.14 0.08 0.03-0.1 0.05-0.19 0.07-0.29-0.08 0.06-0.15 0.14-0.21 0.21zm2.77-0.09c0.25-0.06 0.5-0.13 0.76-0.19 0.01 0.08 0.04 0.16 0.05 0.23-0.15 0.04-0.3 0.08-0.45 0.12 0.01 0.05 0.02 0.09 0.04 0.14 0.12-0.02 0.24-0.06 0.36-0.09 0.02 0.08 0.04 0.15 0.06 0.22-0.12 0.04-0.24 0.07-0.36 0.1 0.01 0.05 0.02 0.11 0.04 0.16 0.15-0.03 0.3-0.08 0.45-0.11l0.06 0.24c-0.25 0.06-0.51 0.13-0.76 0.19-0.08-0.33-0.17-0.67-0.25-1.01zm-0.99 0.04c0.2 0 0.41-0.01 0.62 0 0.16 0 0.31 0.14 0.3 0.3 0.01 0.13-0.07 0.23-0.18 0.28 0.07 0.15 0.14 0.29 0.2 0.44-0.12 0.01-0.23 0.01-0.35 0.01-0.06-0.12-0.1-0.26-0.16-0.38-0.03-0.02-0.07-0.01-0.1-0.01 0 0.13 0.01 0.26 0 0.4h-0.31c-0.01-0.34-0.02-0.69-0.02-1.04zm0.32 0.22v0.2c0.08-0.01 0.16 0.01 0.23-0.03 0.06-0.03 0.05-0.15-0.03-0.17-0.06-0.01-0.13 0-0.2 0z" fill="#9d292a" image-rendering="optimizeQuality"/>
   <path class="fil21" d="m-345.83 476.16c0.08 0 0.15-0.01 0.23-0.02 0.1 0.24 0.19 0.49 0.28 0.73-0.08 0.01-0.16 0.01-0.23 0.01-0.02-0.04-0.04-0.09-0.05-0.13-0.07 0-0.14 0-0.2 0.01-0.01 0.05-0.03 0.09-0.04 0.14-0.06 0.01-0.12 0.01-0.18 0.01 0.06-0.25 0.12-0.5 0.19-0.75zm0.11 0.23c-0.02 0.06-0.04 0.13-0.05 0.2 0.04 0 0.08 0 0.12-0.01-0.02-0.06-0.04-0.13-0.07-0.19zm2.57 0.13c0.07 0 0.15 0.05 0.23 0.07 0 0.26-0.03 0.52-0.03 0.77-0.08-0.01-0.15-0.04-0.22-0.07 0-0.05 0-0.1 0.01-0.15-0.07-0.02-0.13-0.05-0.19-0.06-0.03 0.03-0.06 0.07-0.09 0.11-0.06-0.01-0.11-0.04-0.17-0.06 0.15-0.2 0.3-0.41 0.46-0.61zm-0.11 0.41c0.04 0.02 0.08 0.03 0.12 0.04 0-0.07 0.01-0.14 0.01-0.21-0.05 0.06-0.09 0.11-0.13 0.17zm-0.04 15.08c0.08 0 0.15 0.01 0.22 0.03 0.04 0.2 0.09 0.4 0.13 0.6-0.07-0.01-0.14-0.02-0.21-0.03-0.01-0.04-0.02-0.08-0.02-0.12-0.06-0.01-0.12-0.02-0.18-0.02-0.02 0.03-0.04 0.07-0.06 0.1-0.05 0-0.1-0.01-0.16-0.02 0.09-0.18 0.19-0.36 0.28-0.54zm-0.01 0.34c0.04 0 0.07 0.01 0.11 0.01-0.01-0.05-0.02-0.11-0.03-0.16-0.03 0.05-0.05 0.1-0.08 0.15z" fill="#9d292b" image-rendering="optimizeQuality"/>
   <path class="fil22" d="m-347.18 476.4c0.07-0.03 0.15-0.05 0.22-0.06 0.06 0.23 0.13 0.47 0.19 0.71-0.07 0.03-0.15 0.04-0.22 0.06-0.06-0.24-0.13-0.48-0.19-0.71zm-2.94 1.7c0.06-0.05 0.11-0.11 0.17-0.16 0.17 0.18 0.34 0.36 0.51 0.54-0.06 0.05-0.11 0.11-0.17 0.16-0.17-0.18-0.34-0.36-0.51-0.54zm4.42 13.93c0.12-0.22 0.53-0.18 0.55 0.09-0.06 0.01-0.12 0.01-0.19 0.01-0.01-0.06-0.06-0.13-0.13-0.1-0.08 0.07-0.07 0.21-0.03 0.3 0.07 0.06 0.16 0.01 0.17-0.07 0.06 0 0.12 0.01 0.18 0.01-0.02 0.22-0.32 0.28-0.48 0.17-0.12-0.09-0.13-0.28-0.07-0.41z" fill="#9e292b" image-rendering="optimizeQuality"/>
   <path class="fil23" d="m-345.01 476.32c0.26-0.03 0.23 0.47-0.02 0.4 0-0.13 0.01-0.27 0.02-0.4z" fill="#fcfcfb" image-rendering="optimizeQuality"/>
   <path class="fil24" d="m-346.53 476.42c0.24-0.1 0.33 0.4 0.07 0.4-0.03-0.14-0.05-0.27-0.07-0.4zm-2.52 6.51c0.13-0.03 0.28-0.03 0.4 0.03 0.09 0.05 0.07 0.2-0.03 0.23-0.14 0.04-0.31 0.04-0.45-0.02-0.12-0.07-0.05-0.24 0.08-0.24z" fill="#fcfdfc" image-rendering="optimizeQuality"/>
   <path class="fil25" d="m-345.72 476.39c0.03 0.06 0.05 0.13 0.07 0.19-0.04 0.01-0.08 0.01-0.12 0.01 0.01-0.07 0.03-0.14 0.05-0.2z" fill="#fcf9f8" image-rendering="optimizeQuality"/>
   <path class="fil26" d="m-343.26 476.93c0.04-0.06 0.08-0.11 0.13-0.17 0 0.07-0.01 0.14-0.01 0.21-0.04-0.01-0.08-0.02-0.12-0.04z" fill="#f2f8f2" image-rendering="optimizeQuality"/>
   <path class="fil27" d="m-348.34 477.01c0.07-0.04 0.19-0.1 0.22 0.02-0.03 0.06-0.1 0.09-0.16 0.11-0.02-0.04-0.04-0.09-0.06-0.13z" fill="#fbfbfb" image-rendering="optimizeQuality"/>
   <path class="fil28" d="m-349.21 477.35c0.15-0.1 0.3-0.2 0.46-0.3 0.03 0.05 0.06 0.1 0.09 0.15-0.09 0.06-0.19 0.11-0.28 0.18 0.02 0.03 0.04 0.06 0.06 0.08 0.08-0.04 0.15-0.09 0.23-0.14 0.03 0.04 0.06 0.09 0.09 0.14-0.08 0.05-0.16 0.09-0.23 0.15 0.02 0.03 0.04 0.06 0.07 0.09 0.09-0.05 0.18-0.12 0.27-0.17 0.04 0.04 0.07 0.09 0.1 0.14-0.16 0.1-0.31 0.21-0.47 0.3-0.13-0.21-0.27-0.41-0.39-0.62zm7.67 0.02c0.2 0 0.39 0.19 0.36 0.39-0.03 0.16-0.15 0.31-0.3 0.36-0.22 0.06-0.47-0.13-0.44-0.36 0.02-0.19 0.18-0.38 0.38-0.39zm0.04 0.2c-0.11 0.06-0.25 0.21-0.2 0.34 0.12 0.1 0.22-0.07 0.28-0.15 0.06-0.07 0.03-0.22-0.08-0.19zm-5.42 13.27c0.08-0.34 0.15-0.68 0.23-1.01 0.22 0.06 0.46 0.06 0.65 0.2 0.29 0.26 0.15 0.83-0.24 0.91-0.22 0.03-0.43-0.06-0.64-0.1zm0.49-0.71c-0.04 0.19-0.09 0.37-0.12 0.55 0.34 0.15 0.49-0.55 0.12-0.55zm1.82 1.78c0.06 0 0.13 0 0.19 0.01 0.07 0.1 0.14 0.2 0.2 0.31 0-0.1 0.01-0.2 0.01-0.3h0.17c-0.01 0.2-0.02 0.39-0.03 0.59-0.06-0.01-0.11-0.01-0.17-0.01-0.07-0.12-0.15-0.24-0.22-0.36 0 0.12-0.01 0.23-0.01 0.35-0.06-0.01-0.11-0.01-0.17-0.01 0.01-0.19 0.02-0.39 0.03-0.58zm-2.04 0.04c0.07-0.01 0.15-0.01 0.22-0.01 0.08 0.18 0.17 0.37 0.25 0.56-0.07 0.01-0.14 0.01-0.21 0.01-0.01-0.03-0.03-0.07-0.05-0.11-0.06 0.01-0.11 0.01-0.17 0.02-0.01 0.03-0.02 0.07-0.03 0.11-0.06 0.01-0.11 0.01-0.17 0.01 0.05-0.2 0.11-0.39 0.16-0.59zm0.06 0.33h0.11c-0.02-0.05-0.04-0.11-0.06-0.16-0.02 0.06-0.03 0.11-0.05 0.16z" fill="#9e292a" image-rendering="optimizeQuality"/>
   <path class="fil29" d="m-341.95 477.06c0.07 0.03 0.13 0.08 0.2 0.11-0.11 0.22-0.25 0.42-0.37 0.64-0.07-0.03-0.14-0.08-0.2-0.11 0.12-0.22 0.25-0.42 0.37-0.64z" fill="#9d2a2a" image-rendering="optimizeQuality"/>
   <path class="fil30" d="m-345.83 477.5c0.07-0.03 0.15-0.02 0.23-0.02 0.02 0.41 0.08 0.81 0.13 1.21 0.02 0.3 0.09 0.59 0.1 0.89-0.01 0.07-0.1 0.07-0.15 0.06-0.08-0.32-0.06-0.65-0.1-0.97l-0.12-1.17h-0.09zm-0.83 0.14c0.12-0.07 0.26-0.08 0.39-0.09 0.12 0.39 0.23 0.78 0.35 1.17 0.06 0.2 0.12 0.4 0.19 0.6 0.03 0.11 0.09 0.21 0.07 0.33v0.04c-0.04 0.01-0.1 0.03-0.14 0-0.06-0.09-0.07-0.2-0.1-0.3-0.05-0.22-0.11-0.44-0.17-0.66-0.11-0.38-0.22-0.76-0.33-1.14-0.09 0-0.17 0.03-0.26 0.05zm2.23-0.09c0.08 0 0.17 0 0.25 0.02v0.02c-0.04 0-0.07-0.01-0.11-0.02-0.12 0.4-0.21 0.8-0.32 1.21-0.07 0.28-0.11 0.59-0.21 0.87-0.01 0.02-0.03 0.05-0.05 0.07-0.03-0.01-0.06-0.02-0.1-0.03v-0.08c0.04-0.29 0.15-0.55 0.22-0.83 0.11-0.41 0.21-0.82 0.32-1.23zm-3.77 1.64c0.32 0.2 0.63 0.41 0.94 0.6 0.2 0.13 0.41 0.25 0.61 0.38 0.07 0.04 0.15 0.07 0.18 0.14 0.02 0.04 0 0.08-0.01 0.12-0.02 0-0.05 0.01-0.07 0.02-0.24-0.17-0.49-0.33-0.73-0.5-0.35-0.23-0.7-0.45-1.04-0.68 0.04 0.01 0.09 0.01 0.13 0.01 0-0.03 0-0.06-0.01-0.09z" fill="#ba984a" image-rendering="optimizeQuality"/>
   <path class="fil31" d="m-345.6 477.48c0.17 0 0.34-0.01 0.51 0-0.02 0.4-0.06 0.81-0.09 1.21-0.1 0.03-0.2 0.03-0.29 0-0.05-0.4-0.11-0.8-0.13-1.21z" fill="#0178af" image-rendering="optimizeQuality"/>
   <path class="fil32" d="m-345.09 477.48c0.1 0.01 0.2-0.02 0.3 0.02-0.05-0.01-0.1-0.01-0.15-0.01-0.05 0.35-0.05 0.72-0.09 1.08-0.02 0.34-0.04 0.68-0.04 1.02-0.02 0.01-0.04 0.03-0.05 0.04l-0.02 0.02c-0.05 0-0.1-0.01-0.12-0.07 0.02-0.29 0.05-0.59 0.08-0.89 0.03-0.4 0.07-0.81 0.09-1.21z" fill="#ba984b" image-rendering="optimizeQuality"/>
   <path class="fil33" d="m-346.27 477.55c0.15-0.02 0.29-0.04 0.44-0.05h0.09l0.12 1.17c-0.08 0.07-0.2 0.09-0.3 0.05-0.12-0.39-0.23-0.78-0.35-1.17z" fill="#0177af" image-rendering="optimizeQuality"/>
   <path class="fil34" d="m-345.03 478.57c0.04-0.36 0.04-0.73 0.09-1.08 0.05 0 0.1 0 0.15 0.01 0.12 0.01 0.24 0.02 0.36 0.05-0.11 0.41-0.21 0.82-0.32 1.23-0.13-0.03-0.32-0.03-0.28-0.21zm-1.63-0.93c0.09-0.02 0.17-0.05 0.26-0.05 0.11 0.38 0.22 0.76 0.33 1.14 0 0.13-0.15 0.15-0.25 0.19-0.14-0.26-0.26-0.52-0.39-0.78-0.07-0.15-0.15-0.28-0.21-0.43 0.09-0.03 0.17-0.05 0.26-0.07zm-0.92 0.32c0.16-0.08 0.34-0.14 0.52-0.2 0.08 0.13 0.14 0.27 0.21 0.41 0.13 0.26 0.25 0.51 0.38 0.76-0.03 0.11-0.13 0.17-0.23 0.21-0.18-0.23-0.35-0.47-0.53-0.71-0.12-0.15-0.23-0.31-0.35-0.47zm4.58 0.03c0.18 0.07 0.35 0.17 0.52 0.27-0.16 0.17-0.33 0.33-0.49 0.49-0.24 0.23-0.48 0.47-0.72 0.7-0.08-0.03-0.15-0.1-0.2-0.18 0.18-0.27 0.37-0.53 0.55-0.8 0.12-0.16 0.23-0.32 0.34-0.48zm-5.23 0.32c0.16-0.11 0.34-0.2 0.51-0.29 0.14 0.15 0.25 0.33 0.38 0.49 0.17 0.24 0.36 0.48 0.53 0.72-0.03 0.1-0.11 0.17-0.21 0.21-0.24-0.22-0.47-0.44-0.71-0.66-0.17-0.16-0.33-0.32-0.5-0.47z" fill="#0278ae" image-rendering="optimizeQuality"/>
   <path class="fil35" d="m-341.5 477.57c0.11-0.03 0.14 0.12 0.08 0.19-0.06 0.08-0.16 0.25-0.28 0.15-0.05-0.13 0.09-0.28 0.2-0.34z" fill="#fbfdfc" image-rendering="optimizeQuality"/>
   <path class="fil36" d="m-344.61 478.78c0.11-0.41 0.2-0.81 0.32-1.21 0.04 0.01 0.07 0.02 0.11 0.02 0.13 0.03 0.27 0.06 0.4 0.11-0.06 0.15-0.14 0.29-0.2 0.44-0.12 0.26-0.24 0.52-0.37 0.78-0.09-0.04-0.21-0.04-0.26-0.14zm0.96-1.04c0.18 0.04 0.35 0.12 0.52 0.19-0.11 0.16-0.22 0.33-0.34 0.49-0.17 0.25-0.34 0.5-0.52 0.75-0.08-0.05-0.16-0.1-0.23-0.17 0.12-0.28 0.25-0.55 0.37-0.82 0.07-0.15 0.13-0.29 0.2-0.44z" fill="#0278af" image-rendering="optimizeQuality"/>
   <path class="fil37" d="m-347.06 477.76c0.05-0.02 0.09-0.04 0.14-0.05 0.06 0.15 0.14 0.28 0.21 0.43 0 0.03 0 0.06-0.01 0.09-0.04-0.01-0.09-0.03-0.13-0.06-0.07-0.14-0.13-0.28-0.21-0.41z" fill="#ac753b" image-rendering="optimizeQuality"/>
   <path class="fil38" d="m-343.78 477.7c0.05 0.01 0.09 0.02 0.13 0.04-0.07 0.15-0.13 0.29-0.2 0.44-0.04-0.01-0.09-0.03-0.13-0.04 0.06-0.15 0.14-0.29 0.2-0.44z" fill="#ac743b" image-rendering="optimizeQuality"/>
   <path class="fil39" d="m-341.42 478.31c0.16-0.18 0.32-0.37 0.5-0.55l0.15 0.15c-0.02 0.15-0.05 0.29-0.08 0.44 0.08-0.1 0.16-0.19 0.26-0.28 0.04 0.04 0.09 0.08 0.13 0.12-0.16 0.18-0.33 0.36-0.49 0.54-0.06-0.03-0.1-0.08-0.14-0.12 0.02-0.16 0.06-0.33 0.09-0.49-0.1 0.1-0.19 0.21-0.29 0.31-0.05-0.04-0.09-0.08-0.13-0.12z" fill="#9d2a2b" image-rendering="optimizeQuality"/>
   <path class="fil40" d="m-343.13 477.93c0.05 0.01 0.09 0.03 0.13 0.06-0.11 0.16-0.22 0.32-0.34 0.48-0.05 0-0.09-0.01-0.13-0.05 0.12-0.16 0.23-0.33 0.34-0.49z" fill="#ac6c35" image-rendering="optimizeQuality"/>
   <path class="fil41" d="m-347.72 478.02c0.04-0.02 0.09-0.04 0.14-0.06 0.12 0.16 0.23 0.32 0.35 0.47-0.02 0.04-0.03 0.07-0.05 0.1-0.02 0-0.04-0.01-0.06-0.02-0.13-0.16-0.24-0.34-0.38-0.49z" fill="#a96c37" image-rendering="optimizeQuality"/>
   <path class="fil42" d="m-346.72 478.23c0.01-0.03 0.01-0.06 0.01-0.09 0.13 0.26 0.25 0.52 0.39 0.78 0.12 0.26 0.3 0.51 0.39 0.79 0.01 0.02 0.02 0.05 0.03 0.07-0.04 0.02-0.07 0.04-0.11 0.06l-0.04-0.04c-0.17-0.27-0.27-0.58-0.42-0.87-0.13-0.25-0.25-0.5-0.38-0.76 0.04 0.03 0.09 0.05 0.13 0.06z" fill="#bb984c" image-rendering="optimizeQuality"/>
   <path class="fil43" d="m-344.35 478.92c0.13-0.26 0.25-0.52 0.37-0.78 0.04 0.01 0.09 0.03 0.13 0.04-0.12 0.27-0.25 0.54-0.37 0.82-0.1 0.22-0.2 0.45-0.29 0.67-0.03 0.06-0.05 0.12-0.09 0.17-0.05 0-0.08-0.03-0.12-0.05v-0.03c-0.01-0.04-0.01-0.07 0.01-0.1 0.12-0.24 0.25-0.49 0.36-0.74zm-2.93-0.39c0.02-0.03 0.03-0.06 0.05-0.1 0.18 0.24 0.35 0.48 0.53 0.71 0.17 0.24 0.39 0.46 0.55 0.71 0.05 0.07-0.01 0.12-0.06 0.16-0.02-0.02-0.04-0.04-0.07-0.06-0.2-0.22-0.35-0.48-0.53-0.72-0.17-0.24-0.36-0.48-0.53-0.72 0.02 0.01 0.04 0.02 0.06 0.02zm3.98 1.64c0.31-0.13 0.62-0.28 0.93-0.42 0.01 0.05 0.02 0.09 0.03 0.14-0.5 0.23-1.01 0.45-1.51 0.7-0.07 0.03-0.13 0.08-0.21 0.09-0.03-0.05-0.05-0.1-0.05-0.15 0.25-0.15 0.54-0.23 0.81-0.36z" fill="#bb984b" image-rendering="optimizeQuality"/>
   <path class="fil44" d="m-342.48 478.26c0.04 0.02 0.08 0.05 0.12 0.08-0.17 0.16-0.33 0.32-0.49 0.48-0.04-0.02-0.08-0.04-0.12-0.07 0.16-0.16 0.33-0.32 0.49-0.49z" fill="#a86232" image-rendering="optimizeQuality"/>
   <path class="fil45" d="m-348.35 478.39c0.04-0.03 0.07-0.06 0.12-0.08 0.17 0.15 0.33 0.31 0.5 0.47-0.02 0.04-0.05 0.08-0.07 0.12-0.18-0.17-0.36-0.35-0.55-0.51z" fill="#a76534" image-rendering="optimizeQuality"/>
   <path class="fil46" d="m-342.85 478.82c0.16-0.16 0.32-0.32 0.49-0.48 0.17 0.11 0.34 0.23 0.5 0.36l-0.69 0.48c-0.3 0.2-0.59 0.4-0.89 0.61-0.11-0.01-0.14-0.12-0.18-0.2 0.25-0.26 0.51-0.51 0.77-0.77z" fill="#0378ae" image-rendering="optimizeQuality"/>
   <path class="fil47" d="m-348.85 478.77c0.15-0.14 0.32-0.27 0.5-0.38 0.19 0.16 0.37 0.34 0.55 0.51 0.24 0.23 0.49 0.45 0.72 0.68-0.04 0.08-0.08 0.18-0.18 0.21-0.31-0.19-0.62-0.4-0.94-0.6-0.22-0.14-0.44-0.28-0.65-0.42zm6.43 0.48c0.23-0.15 0.44-0.31 0.67-0.45 0.17 0.14 0.33 0.29 0.47 0.46-0.22 0.1-0.44 0.2-0.66 0.3-0.14 0.06-0.29 0.13-0.43 0.19-0.31 0.14-0.62 0.29-0.93 0.42-0.05-0.07-0.09-0.14-0.13-0.21 0.33-0.25 0.68-0.47 1.01-0.71zm-7.02 0.1c0.14-0.17 0.31-0.32 0.46-0.48 0.23 0.11 0.44 0.27 0.66 0.4 0.34 0.23 0.69 0.45 1.04 0.68-0.02 0.09-0.03 0.21-0.14 0.24-0.28-0.12-0.57-0.24-0.85-0.35-0.18-0.08-0.36-0.15-0.54-0.22-0.21-0.09-0.42-0.18-0.63-0.27z" fill="#0277af" image-rendering="optimizeQuality"/>
   <path class="fil48" d="m-343.99 479.17c0.18-0.25 0.35-0.5 0.52-0.75 0.04 0.04 0.08 0.05 0.13 0.05-0.18 0.27-0.37 0.53-0.55 0.8-0.18 0.24-0.31 0.51-0.51 0.73-0.05 0-0.08-0.04-0.11-0.07 0-0.04 0.01-0.09 0.04-0.12 0.17-0.21 0.32-0.43 0.48-0.64z" fill="#bc984b" image-rendering="optimizeQuality"/>
   <path class="fil49" d="m-345.07 479.59c0-0.34 0.02-0.68 0.04-1.02-0.04 0.18 0.15 0.18 0.28 0.21-0.07 0.28-0.18 0.54-0.22 0.83-0.05 0-0.11-0.02-0.15 0.02 0.01-0.01 0.03-0.03 0.05-0.04zm-0.55-0.92c0.04 0.32 0.02 0.65 0.1 0.97-0.02-0.03-0.03-0.06-0.05-0.08h-0.07c-0.01 0.03-0.01 0.06-0.02 0.09 0.02-0.12-0.04-0.22-0.07-0.33-0.07-0.2-0.13-0.4-0.19-0.6 0.1 0.04 0.22 0.02 0.3-0.05zm0.15 0.02c0.09 0.03 0.19 0.03 0.29 0-0.03 0.3-0.06 0.6-0.08 0.89h-0.11c-0.01-0.3-0.08-0.59-0.1-0.89zm-0.6 0.04c0.06 0.22 0.12 0.44 0.17 0.66 0.03 0.1 0.04 0.21 0.1 0.3-0.04-0.02-0.1-0.03-0.13 0.02-0.09-0.28-0.27-0.53-0.39-0.79 0.1-0.04 0.25-0.06 0.25-0.19zm1.25 0.92c0.1-0.28 0.14-0.59 0.21-0.87 0.05 0.1 0.17 0.1 0.26 0.14-0.11 0.25-0.24 0.5-0.36 0.74-0.02 0.03-0.02 0.06-0.01 0.1-0.01-0.03-0.02-0.06-0.02-0.09-0.03-0.01-0.05-0.01-0.08-0.02zm-1.65-0.72c0.15 0.29 0.25 0.6 0.42 0.87-0.02-0.01-0.05-0.02-0.07-0.02-0.01 0.02-0.02 0.05-0.03 0.07-0.16-0.25-0.38-0.47-0.55-0.71 0.1-0.04 0.2-0.1 0.23-0.21zm1.96 0.74c0.09-0.22 0.19-0.45 0.29-0.67 0.07 0.07 0.15 0.12 0.23 0.17-0.16 0.21-0.31 0.43-0.48 0.64-0.03 0.03-0.04 0.08-0.04 0.12v-0.1c-0.03 0-0.06 0-0.09 0.01 0.04-0.05 0.06-0.11 0.09-0.17zm-2.3-0.44c0.18 0.24 0.33 0.5 0.53 0.72l-0.02-0.01c-0.05 0.03-0.05 0.1-0.03 0.14-0.19-0.24-0.46-0.42-0.69-0.64 0.1-0.04 0.18-0.11 0.21-0.21zm2.41 0.77c0.2-0.22 0.33-0.49 0.51-0.73 0.05 0.08 0.12 0.15 0.2 0.18-0.19 0.19-0.39 0.38-0.59 0.56-0.03 0.03-0.04 0.07-0.05 0.1v-0.1c-0.03 0-0.05 0-0.07-0.01zm2.59-0.35c0.2-0.1 0.41-0.19 0.62-0.28 0.14 0.15 0.26 0.31 0.37 0.48-0.17 0.2-0.45 0.24-0.67 0.35-0.08 0.04-0.15 0.11-0.14 0.21 0.08 0.32 0.36 0.54 0.54 0.81-0.64 0.01-1.28 0-1.91 0.01v0.02c-0.02 0.1-0.01 0.2-0.01 0.3v5.86c-0.03 0.41-0.2 0.8-0.47 1.11-0.68 0.78-1.88 1.1-2.85 0.68-0.74-0.3-1.33-1.01-1.35-1.82v-5.96c-0.01-0.06 0.01-0.12-0.01-0.18l-0.01-0.02c-0.62 0.01-1.23 0-1.85 0.01 0.18-0.27 0.45-0.51 0.55-0.82-0.01-0.1-0.07-0.18-0.16-0.22-0.22-0.1-0.49-0.14-0.66-0.34 0.09-0.14 0.18-0.27 0.29-0.39 0.23 0.1 0.45 0.18 0.68 0.28 0.18 0.08 0.37 0.15 0.55 0.23 0.53 0.22 1.07 0.44 1.58 0.69 0.05 0.02 0.11 0.06 0.15 0.02-0.04 0.09-0.01 0.19-0.02 0.29 0.01 0.13-0.02 0.26 0.04 0.38 0.1 0.23 0.26 0.45 0.47 0.6 0.06 0.03 0.13 0.11 0.19 0.04l0.12 0.33-0.06 0.06c0.04 0.05 0.07 0.11 0.08 0.18 0.12 0.4 0.17 0.83 0.17 1.25-0.06 0.03-0.12 0.07-0.17 0.11-0.03 0.02-0.06 0.04-0.09 0.05-0.01 0.27 0.02 0.53 0.02 0.79-0.01 0.17 0.24 0.25 0.19 0.42-0.06 0.4-0.12 0.8-0.17 1.2-0.19 0.06-0.41 0.03-0.57-0.09-0.01 0-0.03 0-0.04 0.01-0.01 0-0.03 0-0.04 0.01-0.11 0.06-0.18 0.19-0.33 0.16h-0.09c-0.14 0.45-0.25 0.9-0.38 1.35-0.01 0.03-0.01 0.06-0.02 0.09 1.27 0.01 2.55 0 3.82 0 0.03 0.01 0.05 0 0.08-0.02-0.01-0.03-0.02-0.07-0.03-0.11-0.13-0.44-0.23-0.88-0.36-1.31h-0.08c-0.08-0.01-0.16 0-0.23-0.06l-0.02-0.02c-0.02-0.04-0.05-0.08-0.1-0.09h-0.03c-0.01-0.01-0.03-0.01-0.04-0.01-0.15 0.11-0.34 0.14-0.52 0.11-0.08-0.39-0.17-0.78-0.25-1.17 0.04-0.13 0.14-0.24 0.14-0.39 0.02-0.13 0.04-0.27 0.08-0.4 0-0.25 0-0.51-0.01-0.76-0.03-0.01-0.07-0.01-0.1-0.01-0.02 0.03-0.04 0.07-0.07 0.11-0.01 0-0.04-0.01-0.06-0.01-0.02-0.41 0.06-0.81 0.16-1.21 0.01-0.06 0.04-0.12 0.08-0.17-0.01-0.02-0.03-0.05-0.04-0.07 0.01-0.1 0.04-0.21 0.09-0.3 0.11 0.02 0.19-0.07 0.27-0.13 0.22-0.18 0.38-0.44 0.45-0.72-0.01-0.16 0.02-0.34-0.02-0.49 0.08-0.01 0.14-0.06 0.21-0.09 0.5-0.25 1.01-0.47 1.51-0.7 0.18-0.08 0.35-0.16 0.53-0.24zm-4.39 8.67c0 0.03 0 0.06 0.01 0.09 0.05-0.02 0.1-0.05 0.14-0.08v0.33h-0.16v0.08c0.14 0 0.28 0.01 0.42 0 0-0.03 0-0.05-0.01-0.07-0.05-0.01-0.1-0.01-0.15-0.01v-0.47c-0.1-0.01-0.15 0.11-0.25 0.13zm0.48-0.07c-0.07 0.09-0.04 0.25 0.07 0.29 0.08 0.03 0.16-0.01 0.22-0.05 0.01 0.13-0.13 0.26-0.24 0.13-0.03 0.01-0.05 0.02-0.07 0.03 0.06 0.12 0.24 0.14 0.33 0.04 0.08-0.11 0.09-0.26 0.04-0.38-0.06-0.13-0.25-0.16-0.35-0.06zm0.89 0.07v0.1l0.15-0.09v0.33h-0.16c0 0.03-0.01 0.05-0.01 0.08 0.14 0.01 0.28 0.01 0.42 0v-0.08h-0.15v-0.47c-0.1-0.01-0.15 0.11-0.25 0.13zm-0.46-0.12v0.08h0.3c-0.11 0.14-0.19 0.29-0.2 0.46h0.12c0.01-0.12 0.02-0.24 0.08-0.34 0.04-0.07 0.1-0.12 0.09-0.2h-0.39zm-1.79-8.62c0.22 0.19 0.41 0.4 0.62 0.59-0.02 0.05-0.02 0.1-0.01 0.14-0.03-0.07-0.11-0.1-0.18-0.14-0.2-0.13-0.41-0.25-0.61-0.38 0.1-0.03 0.14-0.13 0.18-0.21zm2.84 0.63c0.23-0.18 0.4-0.43 0.62-0.62 0.04 0.08 0.07 0.19 0.18 0.2-0.22 0.14-0.43 0.29-0.65 0.42-0.05 0.02-0.09 0.06-0.11 0.1v-0.09c-0.01 0-0.03-0.01-0.04-0.01zm-3.04-0.26c0.24 0.17 0.49 0.33 0.73 0.5 0.02-0.01 0.05-0.02 0.07-0.02-0.03 0.01-0.06 0.02-0.09 0.03 0 0.02 0.01 0.05 0.01 0.07-0.27-0.13-0.57-0.22-0.86-0.34 0.11-0.03 0.12-0.15 0.14-0.24zm3.31 0.39c0.17-0.14 0.36-0.25 0.54-0.38 0.04 0.07 0.08 0.14 0.13 0.21-0.27 0.13-0.56 0.21-0.81 0.36v-0.08c-0.01 0-0.02-0.01-0.02-0.02 0.06-0.01 0.11-0.05 0.16-0.09z" fill="#0077af" image-rendering="optimizeQuality"/>
   <path class="fil51" d="m-342.55 479.18 0.69-0.48c0.04 0.03 0.08 0.06 0.11 0.1-0.23 0.14-0.44 0.3-0.67 0.45-0.04-0.02-0.08-0.05-0.13-0.07z" fill="#a2582d" image-rendering="optimizeQuality"/>
   <path class="fil52" d="m-343.69 479.45c0.24-0.23 0.48-0.47 0.72-0.7 0.04 0.03 0.08 0.05 0.12 0.07-0.26 0.26-0.52 0.51-0.77 0.77-0.22 0.19-0.39 0.44-0.62 0.62-0.05-0.02-0.07-0.06-0.09-0.1 0.01-0.03 0.02-0.07 0.05-0.1 0.2-0.18 0.4-0.37 0.59-0.56z" fill="#bc9749" image-rendering="optimizeQuality"/>
   <path class="fil53" d="m-348.98 478.87c0.04-0.04 0.08-0.07 0.13-0.1 0.21 0.14 0.43 0.28 0.65 0.42 0.01 0.03 0.01 0.06 0.01 0.09-0.04 0-0.09 0-0.13-0.01-0.22-0.13-0.43-0.29-0.66-0.4z" fill="#a0532d" image-rendering="optimizeQuality"/>
   <path class="fil54" d="m-347.73 478.78c0.24 0.22 0.47 0.44 0.71 0.66 0.23 0.22 0.5 0.4 0.69 0.64 0.01 0.01 0.02 0.03 0.02 0.04l-0.06 0.09c-0.03-0.01-0.06-0.03-0.09-0.04-0.21-0.19-0.4-0.4-0.62-0.59-0.23-0.23-0.48-0.45-0.72-0.68 0.02-0.04 0.05-0.08 0.07-0.12zm4.29 1.01c0.3-0.21 0.59-0.41 0.89-0.61 0.05 0.02 0.09 0.05 0.13 0.07-0.33 0.24-0.68 0.46-1.01 0.71-0.18 0.13-0.37 0.24-0.54 0.38-0.05 0.04-0.1 0.08-0.16 0.09-0.03-0.03-0.06-0.07-0.07-0.12 0.02-0.04 0.06-0.08 0.11-0.1 0.22-0.13 0.43-0.28 0.65-0.42z" fill="#bb984a" image-rendering="optimizeQuality"/>
   <path class="fil55" d="m-341.94 479.56c0.22-0.1 0.44-0.2 0.66-0.3 0.03 0.03 0.06 0.07 0.09 0.11-0.21 0.09-0.42 0.18-0.62 0.28-0.04 0-0.08 0.01-0.12 0.01-0.01-0.03-0.01-0.07-0.01-0.1z" fill="#9a3d26" image-rendering="optimizeQuality"/>
   <path class="fil56" d="m-349.53 479.46c0.03-0.04 0.06-0.07 0.09-0.11 0.21 0.09 0.42 0.18 0.63 0.27 0.02 0.02 0.04 0.04 0.06 0.07-0.03 0.02-0.07 0.04-0.1 0.05-0.23-0.1-0.45-0.18-0.68-0.28z" fill="#963925" image-rendering="optimizeQuality"/>
   <path class="fil57" d="m-342.37 479.75c0.14-0.06 0.29-0.13 0.43-0.19 0 0.03 0 0.07 0.01 0.1 0.04 0 0.08-0.01 0.12-0.01-0.18 0.08-0.35 0.16-0.53 0.24-0.01-0.05-0.02-0.09-0.03-0.14z" fill="#ad753a" image-rendering="optimizeQuality"/>
   <path class="fil58" d="m-348.81 479.62c0.18 0.07 0.36 0.14 0.54 0.22-0.01 0.04-0.02 0.09-0.03 0.13-0.18-0.08-0.37-0.15-0.55-0.23 0.03-0.01 0.07-0.03 0.1-0.05-0.02-0.03-0.04-0.05-0.06-0.07z" fill="#ad733b" image-rendering="optimizeQuality"/>
   <path class="fil59" d="m-349.82 479.85c0.17 0.2 0.44 0.24 0.66 0.34 0.09 0.04 0.15 0.12 0.16 0.22-0.03-0.02-0.07-0.04-0.1-0.06-0.29-0.09-0.56 0.12-0.83 0.22-0.09 0.03-0.2 0.09-0.29 0.01l-0.02-0.01c0.13-0.25 0.26-0.49 0.42-0.72zm4.24 3.96c0.08-0.04 0.15-0.09 0.23-0.12 0.1 0 0.2 0.05 0.3 0.08 0.02 0 0.05 0.01 0.06 0.01 0.03 0.04 0.06 0.08 0.09 0.12-0.03 0.03-0.05 0.07-0.07 0.1 0.02 0.04 0.05 0.09 0.07 0.13-0.01 0.03-0.03 0.06-0.05 0.1 0.03 0.05 0.05 0.11 0.07 0.17-0.04 0.03-0.08 0.05-0.11 0.08 0.02 0.05 0.04 0.09 0.06 0.14-0.04 0.05-0.09 0.1-0.14 0.14h-0.07c-0.1-0.01-0.22-0.08-0.31-0.01-0.05 0.03-0.1 0.07-0.15 0.1 0.06-0.09 0.17-0.19 0.28-0.15l0.24 0.03c0.09-0.06 0.14-0.15 0.05-0.24-0.12-0.03-0.24-0.07-0.37-0.09-0.11 0.04-0.2 0.1-0.3 0.13 0.05-0.1 0.19-0.11 0.28-0.16 0.14 0 0.26 0.06 0.4 0.08l0.09-0.06c-0.01-0.03-0.02-0.07-0.03-0.1-0.13-0.05-0.25-0.1-0.38-0.13-0.12 0.02-0.23 0.07-0.35 0.1 0.03-0.09 0.15-0.07 0.22-0.11 0.16-0.08 0.32 0.05 0.48 0.08 0.02-0.03 0.04-0.07 0.06-0.1-0.05-0.12-0.21-0.11-0.31-0.16-0.14-0.07-0.27 0.05-0.41 0.06 0.07-0.08 0.2-0.09 0.29-0.12 0.12 0 0.23 0.07 0.34 0.09 0.03-0.03 0.05-0.07 0.08-0.1-0.08-0.14-0.26-0.13-0.4-0.18-0.14 0.05-0.26 0.16-0.41 0.2 0.05-0.04 0.11-0.08 0.17-0.11z" fill="#201a17" image-rendering="optimizeQuality"/>
   <path class="fil60" d="m-348.27 479.84c0.28 0.11 0.57 0.23 0.85 0.35 0.29 0.12 0.59 0.21 0.86 0.34 0.03 0.05 0.02 0.1-0.01 0.15-0.04 0.04-0.1 0-0.15-0.02-0.51-0.25-1.05-0.47-1.58-0.69 0.01-0.04 0.02-0.09 0.03-0.13z" fill="#bb994b" image-rendering="optimizeQuality"/>
   <path class="fil61" d="m-345.43 480.25c0.04-0.19 0.19-0.34 0.36-0.42-0.06 0.1-0.14 0.21-0.12 0.33 0.03 0.26 0.25 0.47 0.24 0.74-0.02 0.22-0.14 0.43-0.31 0.57h-0.02c0.1-0.14 0.25-0.27 0.27-0.46 0-0.15-0.03-0.32-0.13-0.45-0.12 0.08-0.09 0.25-0.1 0.37-0.03-0.07-0.05-0.14-0.09-0.22-0.01 0-0.04-0.01-0.05-0.01 0.01 0.26 0.03 0.55-0.13 0.77-0.01-0.01-0.03-0.01-0.04-0.01 0.06-0.09 0.11-0.18 0.13-0.28 0.06-0.31-0.08-0.62-0.01-0.93zm0.55-0.15c0.37 0.33 0.54 0.92 0.27 1.37h-0.03c0.04-0.1 0.09-0.19 0.08-0.3-0.11 0-0.16 0.11-0.23 0.18v-0.1c-0.12 0-0.22 0.09-0.24 0.21-0.01 0-0.02 0-0.02-0.01 0.03-0.28 0.28-0.5 0.28-0.8 0.02-0.19-0.05-0.37-0.11-0.55zm-5.79 11.56c0.82-0.11 1.51-0.73 2.35-0.66 0.29 0.06 0.31 0.4 0.3 0.63 0.28-0.03 0.57-0.07 0.85-0.1 0.17 0.04 0.34 0.11 0.51 0.15 0.24 0.07 0.49 0.1 0.73 0.15-0.71 0.02-1.42 0.07-2.12 0.19-0.03 0-0.03 0.04-0.04 0.06-0.04 0.2-0.09 0.39-0.19 0.56 0-0.09 0.01-0.22-0.1-0.25-0.23-0.05-0.45 0.04-0.66 0.11-0.51 0.22-1.04 0.4-1.6 0.46-0.86 0.11-1.77-0.03-2.52-0.48 0.54 0.05 1.08 0.1 1.62 0.04 0.21-0.04 0.45-0.07 0.61-0.23-0.34-0.23-0.58-0.59-0.72-0.98 0.26 0.24 0.62 0.41 0.98 0.35zm2.02-0.27c-0.43 0.1-0.83 0.29-1.25 0.42-0.42 0.16-0.87 0.25-1.31 0.17 0.09 0.12 0.21 0.22 0.34 0.29-0.22 0.28-0.62 0.27-0.94 0.32 0.28 0.09 0.58 0.07 0.87 0.06 0.75-0.04 1.42-0.42 2.13-0.59 0.23-0.04 0.48-0.13 0.69-0.02 0.04-0.19 0.07-0.38 0.06-0.57-0.16-0.15-0.39-0.12-0.59-0.08zm6.07-0.3c0.1-0.12 0.28-0.1 0.42-0.09 0.56 0.05 1.04 0.33 1.55 0.52 0.31 0.11 0.64 0.2 0.97 0.12 0.21-0.05 0.4-0.19 0.57-0.33-0.15 0.39-0.39 0.75-0.73 0.98 0.17 0.16 0.42 0.2 0.65 0.23 0.53 0.06 1.06 0.01 1.59-0.04-0.38 0.23-0.81 0.37-1.24 0.45-0.98 0.19-1.99-0.02-2.89-0.43-0.21-0.07-0.44-0.16-0.66-0.11-0.12 0.04-0.1 0.18-0.08 0.28-0.13-0.19-0.17-0.43-0.23-0.65-0.72-0.12-1.46-0.18-2.19-0.19 0.42-0.07 0.84-0.16 1.24-0.3 0.3 0.03 0.6 0.07 0.9 0.11 0-0.19 0-0.4 0.13-0.55zm-0.1 0.45c0.01 0.17 0.03 0.33 0.07 0.5 0.15-0.09 0.33-0.05 0.5-0.02 0.59 0.12 1.15 0.37 1.73 0.55 0.48 0.08 0.99 0.15 1.46 0.02-0.32-0.04-0.71-0.04-0.94-0.31 0.13-0.08 0.25-0.18 0.34-0.3-0.68 0.13-1.34-0.18-1.97-0.4-0.31-0.11-0.63-0.24-0.96-0.21-0.09 0.02-0.24 0.05-0.23 0.17zm-6.16 1.39c2.17-0.47 4.44-0.5 6.62-0.07 0.1 0.02 0.19 0.05 0.28 0.04 0.14 0.03 0.12 0.18 0.08 0.27-0.09 0.05-0.19 0.07-0.29 0.05-1.22-0.22-2.45-0.36-3.68-0.32-0.94 0.04-1.88 0.16-2.8 0.33-0.07 0.01-0.14-0.02-0.21-0.04-0.05-0.08-0.12-0.21 0-0.26z" fill="#ed2d38" image-rendering="optimizeQuality"/>
   <path class="fil62" d="m-340.82 479.85c0.16 0.23 0.29 0.47 0.42 0.72-0.04 0.02-0.09 0.05-0.14 0.05-0.33-0.06-0.63-0.36-0.98-0.27-0.04 0.01-0.08 0.04-0.11 0.06-0.01-0.1 0.06-0.17 0.14-0.21 0.22-0.11 0.5-0.15 0.67-0.35zm-5.24 1.96c-0.12-0.01-0.14-0.2-0.01-0.22 0.5 0 1.01-0.01 1.52 0 0.11 0.03 0.09 0.2-0.02 0.21-0.5 0-0.99-0.01-1.49 0.01zm0.23 0.57 0.06-0.06h0.92c0.01 0.02 0.03 0.05 0.04 0.07-0.04 0.05-0.07 0.11-0.08 0.17-0.29 0-0.57 0.01-0.86 0-0.01-0.07-0.04-0.13-0.08-0.18zm0.5 4.06h0.03v0.99c0 0.01 0 0.03-0.01 0.04-0.01-0.01-0.02-0.02-0.03-0.04 0.01-0.33 0-0.66 0.01-0.99z" fill="#1f1a17" image-rendering="optimizeQuality"/>
   <path class="fil63" d="m-345.99 480.05c0.23 0.11 0.5 0.3 0.47 0.58s-0.29 0.57-0.1 0.84c-0.01 0.01-0.03 0.01-0.04 0.01-0.16-0.25 0.03-0.5 0.08-0.74-0.06 0.05-0.11 0.11-0.16 0.17 0.01-0.06 0.02-0.12 0.02-0.18-0.08 0.04-0.14 0.11-0.2 0.17 0.02-0.05 0.03-0.11 0.04-0.16-0.12 0.04-0.23 0.14-0.24 0.27-0.04 0.2 0.12 0.35 0.25 0.47-0.01 0-0.04-0.01-0.05-0.01-0.14-0.1-0.26-0.27-0.24-0.45 0.04-0.25 0.28-0.42 0.28-0.68 0.01-0.11-0.06-0.2-0.11-0.29z" fill="#ed2e38" image-rendering="optimizeQuality"/>
   <path class="fil64" d="m-345.24 480.93c0.01-0.12-0.02-0.29 0.1-0.37 0.1 0.13 0.13 0.3 0.13 0.45-0.02 0.19-0.17 0.32-0.27 0.46-0.08 0.01-0.16 0.01-0.23 0 0.16-0.22 0.14-0.51 0.13-0.77 0.01 0 0.04 0.01 0.05 0.01 0.04 0.08 0.06 0.15 0.09 0.22zm-0.88 0.08c0.01-0.13 0.12-0.23 0.24-0.27-0.01 0.05-0.02 0.11-0.04 0.16 0.06-0.06 0.12-0.13 0.2-0.17 0 0.06-0.01 0.12-0.02 0.18 0.05-0.06 0.1-0.12 0.16-0.17-0.05 0.24-0.24 0.49-0.08 0.74h-0.21c-0.13-0.12-0.29-0.27-0.25-0.47z" fill="#f5d305" image-rendering="optimizeQuality"/>
   <path class="fil65" d="m-344.79 481.35c0.07-0.07 0.12-0.18 0.23-0.18 0.01 0.11-0.04 0.2-0.08 0.3-0.13 0-0.26 0.02-0.39-0.01 0.02-0.12 0.12-0.21 0.24-0.21v0.1z" fill="#f4d307" image-rendering="optimizeQuality"/>
   <path class="fil66" d="m-347.7 481.22 0.01 0.02c0.01 1.93 0 3.85 0 5.78 0 0.13 0 0.27-0.01 0.41-0.02-0.12-0.01-0.25-0.01-0.37v-5.73c0-0.04 0-0.07 0.01-0.11z" fill="#a8af85" image-rendering="optimizeQuality"/>
   <path class="fil67" d="m-343 481.25c0-0.01 0.02-0.02 0.03-0.02-0.02 0.11-0.02 0.21-0.02 0.32v5.67c0 0.06 0.01 0.13-0.02 0.19v-5.86c0-0.1-0.01-0.2 0.01-0.3z" fill="#a7a977" image-rendering="optimizeQuality"/>
   <path class="fil68" d="m-345.62 481.47c0.02 0 0.05 0 0.07-0.01 0.01 0 0.03 0 0.04 0.01 0.07 0.01 0.15 0.01 0.23 0h0.02c0.07 0 0.15 0.03 0.21-0.02 0 0.01 0.01 0.01 0.02 0.01 0.13 0.03 0.26 0.01 0.39 0.01h0.03l0.06 0.12c-0.51-0.01-1.02 0-1.52 0 0.01-0.03 0.02-0.07 0.03-0.1 0.04-0.01 0.08-0.01 0.12-0.02 0.01 0 0.04 0.01 0.05 0.01h0.21c0.01 0 0.03 0 0.04-0.01z" fill="#848281" image-rendering="optimizeQuality"/>
   <path class="fil69" d="m-349.77 481.51c0.6-0.01 1.2-0.01 1.8 0v5.8c0.01 0.44 0.14 0.87 0.39 1.23 0.58 0.83 1.66 1.27 2.65 1.09 0.72-0.14 1.41-0.53 1.83-1.14 0.26-0.38 0.38-0.84 0.37-1.29v-5.69c0.61-0.01 1.22-0.01 1.82 0 0.01 1.92 0.01 3.85 0.01 5.78 0 0.72-0.16 1.45-0.51 2.09-0.37 0.69-0.97 1.24-1.66 1.6-0.97 0.51-2.1 0.72-3.17 0.51-0.8-0.16-1.56-0.5-2.18-1.03-0.55-0.48-0.96-1.12-1.16-1.82-0.19-0.6-0.2-1.24-0.19-1.87 0-1.75-0.01-3.51 0-5.26zm0.36 0.38c-0.02 0.14-0.04 0.3 0.03 0.43 0.06 0.09 0.18 0.12 0.28 0.12 0.24 0.01 0.49 0 0.73 0v-0.3c-0.24-0.01-0.47 0.01-0.71-0.01-0.12-0.01-0.09-0.16-0.08-0.25-0.08 0-0.16 0-0.25 0.01zm7.11 0.07v0.25c0.18 0 0.36 0.01 0.54-0.01-0.18 0.11-0.36 0.23-0.54 0.34-0.01 0.1 0 0.2 0 0.3 0.34 0.01 0.69 0.01 1.03 0 0.01-0.08 0.01-0.17 0-0.25-0.21 0-0.43-0.02-0.65 0.01 0.23-0.11 0.44-0.25 0.65-0.38 0.01-0.09 0.01-0.18 0-0.26-0.34-0.01-0.69-0.01-1.03 0zm-6.77 0.63c-0.29 0.06-0.43 0.4-0.32 0.67 0.15 0.38 0.79 0.41 0.98 0.04 0.1-0.2 0.07-0.47-0.11-0.61-0.15-0.12-0.36-0.15-0.55-0.1zm6.77 0.44c0 0.08-0.01 0.17 0 0.26 0.18 0 0.36 0 0.54-0.01-0.19 0.1-0.37 0.22-0.54 0.34 0 0.1-0.01 0.2 0 0.3h1.03c0.01-0.09 0.01-0.18 0.01-0.26-0.21 0-0.42-0.01-0.63 0.01 0.21-0.12 0.42-0.25 0.62-0.38 0.01-0.09 0.01-0.18 0-0.26-0.34 0-0.69-0.01-1.03 0zm-7.11 0.66v0.32c0.13 0 0.26 0 0.4 0.01-0.01 0.03-0.01 0.06-0.01 0.1l-0.39 0.15v0.35c0.15-0.06 0.3-0.12 0.45-0.19 0.05 0.11 0.16 0.2 0.29 0.19 0.17 0.01 0.29-0.16 0.3-0.32v-0.61c-0.35 0.01-0.7 0-1.04 0zm7.11 0.65v0.34c0.34 0.11 0.69 0.21 1.03 0.32 0.01-0.09 0.01-0.17 0-0.26-0.06-0.02-0.13-0.04-0.2-0.07v-0.27c0.07-0.02 0.14-0.04 0.2-0.06 0.01-0.11 0.01-0.22 0-0.32-0.34 0.1-0.69 0.21-1.03 0.32zm-6.89 0.44c-0.25 0.11-0.33 0.49-0.12 0.68-0.03 0.02-0.07 0.03-0.1 0.04v0.16h0.58c0-0.16 0.01-0.31 0-0.47h-0.22v0.17c-0.16 0-0.17-0.25-0.02-0.29 0.14-0.03 0.33-0.05 0.45 0.05 0.09 0.1-0.02 0.22-0.13 0.24l0.03 0.3c0.37-0.04 0.48-0.54 0.24-0.79-0.18-0.18-0.48-0.2-0.71-0.09zm6.89 0.32c0 0.13-0.01 0.27 0 0.41 0.18 0.06 0.36 0.09 0.54 0.15l-0.54 0.15c0 0.14-0.01 0.28 0 0.42h1.03c0.01-0.08 0.01-0.16 0-0.24-0.23-0.01-0.47 0-0.7-0.01 0.23-0.07 0.47-0.12 0.7-0.19 0.01-0.07 0.01-0.14 0.01-0.21-0.24-0.06-0.49-0.12-0.73-0.19 0.24 0 0.49 0.01 0.73 0-0.01-0.1 0-0.2-0.01-0.29-0.34-0.01-0.69-0.01-1.03 0zm-7.11 0.73v0.78h0.25v-0.47h0.17c0 0.13-0.01 0.25 0 0.38h0.23v-0.38h0.15v0.47h0.24v-0.78c-0.35-0.01-0.69 0-1.04 0zm7.11 0.58c0 0.1-0.01 0.21 0 0.32 0.12 0 0.25-0.01 0.38 0v0.24h-0.38v0.32h1.03c0.01-0.11 0.01-0.21 0-0.32h-0.4v-0.24c0.14-0.01 0.27 0 0.41-0.01v-0.31c-0.35-0.01-0.7 0-1.04 0zm-7.12 0.74c0 0.18 0.01 0.36 0.02 0.54 0 0.11 0.03 0.26 0.16 0.3 0.14 0.07 0.34 0 0.38-0.17 0.09 0.23 0.44 0.18 0.48-0.05 0.03-0.22 0-0.43 0-0.65-0.35 0.01-0.7 0.02-1.04 0.03zm7.43 0.3c-0.36 0.07-0.5 0.58-0.23 0.83 0.21 0.2 0.6 0.23 0.81 0 0.14-0.16 0.17-0.42 0.05-0.6-0.13-0.2-0.4-0.27-0.63-0.23zm-7.36 0.84c0.02 0.08 0.05 0.16 0.09 0.24 0.07 0 0.14-0.01 0.21-0.01 0.03 0.08 0.06 0.17 0.1 0.25-0.05 0.05-0.12 0.09-0.17 0.14 0.03 0.1 0.07 0.2 0.11 0.3 0.29-0.22 0.57-0.44 0.86-0.67-0.04-0.11-0.08-0.21-0.12-0.32-0.36 0.03-0.72 0.05-1.08 0.07zm6.75 0.35c-0.09 0.15-0.19 0.31-0.28 0.46 0.29 0.18 0.59 0.36 0.88 0.54 0.07-0.08 0.12-0.18 0.17-0.27-0.11-0.07-0.22-0.13-0.33-0.2 0.02-0.03 0.02-0.07 0.05-0.09 0.14 0.02 0.27 0.05 0.41 0.08 0.07-0.1 0.13-0.2 0.19-0.31-0.16-0.02-0.32-0.05-0.48-0.07 0.04-0.19-0.14-0.37-0.32-0.35-0.13 0.01-0.22 0.11-0.29 0.21zm-5.81 0.53c-0.01 0.16 0.11 0.29 0.17 0.44 0.02 0.04-0.03 0.11-0.07 0.08-0.11-0.06-0.16-0.18-0.12-0.29-0.07-0.06-0.15-0.12-0.23-0.18-0.19 0.29 0.07 0.66 0.36 0.74 0.18 0.06 0.4-0.08 0.4-0.28 0-0.16-0.13-0.29-0.18-0.43-0.02-0.06 0.06-0.1 0.1-0.06 0.07 0.05 0.1 0.14 0.07 0.23 0.08 0.04 0.15 0.1 0.24 0.13 0.12-0.25-0.08-0.53-0.31-0.63-0.18-0.07-0.41 0.05-0.43 0.25zm4.93 0.51c-0.03 0.26 0.13 0.51 0.35 0.63 0.24 0.13 0.59-0.03 0.62-0.31 0.03 0.01 0.06 0.03 0.09 0.05 0.04-0.03 0.08-0.05 0.13-0.08-0.12-0.16-0.23-0.32-0.35-0.48-0.12 0.1-0.25 0.18-0.37 0.28 0.04 0.06 0.08 0.12 0.13 0.18 0.04-0.04 0.09-0.07 0.14-0.11 0.08 0.14-0.1 0.29-0.22 0.2-0.12-0.1-0.24-0.24-0.24-0.4 0.03-0.13 0.2-0.12 0.27-0.03 0.07-0.07 0.16-0.13 0.22-0.21-0.25-0.27-0.72-0.05-0.77 0.28zm-4.57 0.6c0.08 0.04 0.15 0.08 0.22 0.12 0.06-0.05 0.11-0.1 0.16-0.15 0.08 0.05 0.17 0.09 0.24 0.15-0.02 0.06-0.04 0.13-0.04 0.2 0.09 0.05 0.18 0.1 0.28 0.15 0.07-0.35 0.14-0.71 0.22-1.06-0.1-0.06-0.2-0.11-0.3-0.17-0.26 0.25-0.53 0.5-0.78 0.76zm3.31-0.29c0.08 0.34 0.17 0.68 0.25 1.01 0.25-0.06 0.51-0.13 0.76-0.19l-0.06-0.24c-0.15 0.03-0.3 0.08-0.45 0.11-0.02-0.05-0.03-0.11-0.04-0.16 0.12-0.03 0.24-0.06 0.36-0.1-0.02-0.07-0.04-0.14-0.06-0.22-0.12 0.03-0.24 0.07-0.36 0.09-0.02-0.05-0.03-0.09-0.04-0.14 0.15-0.04 0.3-0.08 0.45-0.12-0.01-0.07-0.04-0.15-0.05-0.23-0.26 0.06-0.51 0.13-0.76 0.19zm-2.18 0.85c0.21 0.04 0.42 0.13 0.64 0.1 0.39-0.08 0.53-0.65 0.24-0.91-0.19-0.14-0.43-0.14-0.65-0.2-0.08 0.33-0.15 0.67-0.23 1.01zm1.19-0.81c0 0.35 0.01 0.7 0.02 1.04h0.31c0.01-0.14 0-0.27 0-0.4 0.03 0 0.07-0.01 0.1 0.01 0.06 0.12 0.1 0.26 0.16 0.38 0.12 0 0.23 0 0.35-0.01-0.06-0.15-0.13-0.29-0.2-0.44 0.11-0.05 0.19-0.15 0.18-0.28 0.01-0.16-0.14-0.3-0.3-0.3-0.21-0.01-0.42 0-0.62 0zm-0.86 2.25c0.02-0.05 0.03-0.1 0.05-0.16 0.02 0.05 0.04 0.11 0.06 0.16h-0.11zm3.28 0.07c0.03-0.05 0.05-0.1 0.08-0.15 0.01 0.05 0.02 0.11 0.03 0.16-0.04 0-0.07-0.01-0.11-0.01z" fill="#fffffe" image-rendering="optimizeQuality"/>
   <path class="fil70" d="m-346.06 481.81c0.5-0.02 0.99-0.01 1.49-0.01-0.08 0.06-0.16 0.13-0.19 0.22-0.05 0.09-0.08 0.2-0.09 0.3h-0.92l-0.12-0.33c-0.04-0.08-0.11-0.13-0.17-0.18zm0.31 0.75c0.29 0.01 0.57 0 0.86 0-0.1 0.4-0.18 0.8-0.16 1.21-0.1-0.03-0.2-0.08-0.3-0.08-0.08 0.03-0.15 0.08-0.23 0.12 0-0.42-0.05-0.85-0.17-1.25zm0.3 2.19c0.09-0.07 0.21 0 0.31 0.01-0.02 0.44-0.03 0.89-0.06 1.34h-0.17c-0.03-0.45-0.05-0.9-0.08-1.35z" fill="#838280" image-rendering="optimizeQuality"/>
   <path class="fil71" d="m-344.99 483.78c0.03-0.04 0.05-0.08 0.07-0.11 0.03 0 0.07 0 0.1 0.01 0.01 0.25 0.01 0.51 0.01 0.76-0.04 0.13-0.06 0.27-0.08 0.4 0 0.15-0.1 0.26-0.14 0.39 0.08 0.39 0.17 0.78 0.25 1.17-0.17-0.05-0.37-0.07-0.52 0.04h-0.03c-0.14-0.1-0.31-0.1-0.47-0.06 0.05-0.4 0.11-0.8 0.17-1.2 0.05-0.17-0.2-0.25-0.19-0.42 0-0.26-0.03-0.52-0.02-0.79 0.03-0.01 0.06-0.03 0.09-0.05 0.15-0.04 0.27-0.15 0.41-0.2 0.14 0.05 0.32 0.04 0.4 0.18-0.03 0.03-0.05 0.07-0.08 0.1-0.11-0.02-0.22-0.09-0.34-0.09-0.09 0.03-0.22 0.04-0.29 0.12 0.14-0.01 0.27-0.13 0.41-0.06 0.1 0.05 0.26 0.04 0.31 0.16-0.02 0.03-0.04 0.07-0.06 0.1-0.16-0.03-0.32-0.16-0.48-0.08-0.07 0.04-0.19 0.02-0.22 0.11 0.12-0.03 0.23-0.08 0.35-0.1 0.13 0.03 0.25 0.08 0.38 0.13 0.01 0.03 0.02 0.07 0.03 0.1l-0.09 0.06c-0.14-0.02-0.26-0.08-0.4-0.08-0.09 0.05-0.23 0.06-0.28 0.16 0.1-0.03 0.19-0.09 0.3-0.13 0.13 0.02 0.25 0.06 0.37 0.09 0.09 0.09 0.04 0.18-0.05 0.24l-0.24-0.03c-0.11-0.04-0.22 0.06-0.28 0.15 0.05-0.03 0.1-0.07 0.15-0.1 0.03 0.45 0.05 0.9 0.08 1.35h0.17c0.03-0.45 0.04-0.9 0.06-1.34h0.07c0.05-0.04 0.1-0.09 0.14-0.14-0.02-0.05-0.04-0.09-0.06-0.14 0.03-0.03 0.07-0.05 0.11-0.08-0.02-0.06-0.04-0.12-0.07-0.17 0.02-0.04 0.04-0.07 0.05-0.1-0.02-0.04-0.05-0.09-0.07-0.13 0.02-0.03 0.04-0.07 0.07-0.1-0.03-0.04-0.06-0.08-0.09-0.12z" fill="#fdc391" image-rendering="optimizeQuality"/>
   <path class="fil72" d="m-348.79 484.01c0.07 0 0.13 0 0.2 0.01 0 0.06 0 0.13-0.01 0.2-0.02 0.08-0.15 0.09-0.17 0.01-0.03-0.07-0.02-0.14-0.02-0.22z" fill="#fbfcfb" image-rendering="optimizeQuality"/>
   <path class="fil73" d="m-341.99 484.54c0.1-0.03 0.19-0.07 0.29-0.08v0.16c-0.09-0.02-0.19-0.05-0.29-0.08z" fill="#fafbfa" image-rendering="optimizeQuality"/>
   <path class="fil74" d="m-346.78 486.47c0.15 0.03 0.22-0.1 0.33-0.16-0.08 0.36-0.17 0.72-0.25 1.08 0.31 0.01 0.62 0 0.94 0.01 0.14 0.01 0.31 0.02 0.4 0.15-0.11-0.04-0.21-0.07-0.32-0.07-0.37-0.01-0.74 0-1.1-0.01 0.07-0.36 0.18-0.71 0.24-1.07-0.06 0.07-0.06 0.16-0.08 0.25-0.07 0.28-0.15 0.57-0.2 0.86 0.36 0 0.72-0.01 1.08 0 0.13 0.01 0.28 0.01 0.39 0.1-0.52 0.01-1.04 0.01-1.56 0.01 0.07-0.37 0.18-0.72 0.25-1.08-0.04 0.02-0.05 0.07-0.06 0.11-0.07 0.33-0.16 0.66-0.23 1h1.51c-0.03 0.01-0.06 0.03-0.08 0.04h0.41c-0.03-0.01-0.05-0.03-0.08-0.04h1.51c-0.08-0.34-0.16-0.67-0.23-1-0.01-0.04-0.03-0.08-0.06-0.11 0.07 0.36 0.17 0.71 0.25 1.08-0.52 0-1.04-0.01-1.56 0 0.1-0.1 0.24-0.1 0.37-0.11 0.37-0.01 0.73 0 1.1-0.01-0.08-0.36-0.16-0.73-0.26-1.09 0.07 0.06 0.15 0.05 0.23 0.06v0.03c-0.04-0.02-0.09-0.03-0.14-0.03 0.05 0.06 0.09 0.13 0.11 0.21 0.09 0.34 0.19 0.67 0.27 1.01-1.15 0.01-2.29 0.01-3.43 0 0.06-0.27 0.14-0.54 0.21-0.81 0.05-0.14 0.06-0.29 0.16-0.4-0.03-0.01-0.06-0.01-0.1-0.01z" fill="#aaa8a9" image-rendering="optimizeQuality"/>
   <path class="fil75" d="m-346.45 486.31c0.01-0.01 0.03-0.01 0.04-0.01-0.08 0.35-0.17 0.7-0.25 1.06 0.33 0.01 0.66-0.01 0.99 0.01 0.14 0.01 0.27 0.06 0.36 0.17 0.09-0.13 0.24-0.17 0.39-0.17 0.32-0.02 0.63 0 0.95-0.01-0.08-0.35-0.17-0.71-0.25-1.06h0.03c0.09 0.36 0.18 0.73 0.26 1.09-0.32 0.01-0.64 0-0.96 0.01-0.14 0.01-0.3 0.02-0.38 0.15 0.1-0.04 0.21-0.07 0.32-0.07 0.37-0.01 0.73 0 1.1-0.01-0.07-0.36-0.19-0.71-0.24-1.08l0.02 0.02c0.1 0.36 0.18 0.73 0.26 1.09-0.37 0.01-0.73 0-1.1 0.01-0.13 0.01-0.27 0.01-0.37 0.11 0.52-0.01 1.04 0 1.56 0-0.08-0.37-0.18-0.72-0.25-1.08 0.03 0.03 0.05 0.07 0.06 0.11 0.07 0.33 0.15 0.66 0.23 1h-1.51c0.03 0.01 0.05 0.03 0.08 0.04h-0.41c0.02-0.01 0.05-0.03 0.08-0.04h-1.51c0.07-0.34 0.16-0.67 0.23-1 0.01-0.04 0.02-0.09 0.06-0.11-0.07 0.36-0.18 0.71-0.25 1.08 0.52 0 1.04 0 1.56-0.01-0.11-0.09-0.26-0.09-0.39-0.1-0.36-0.01-0.72 0-1.08 0 0.05-0.29 0.13-0.58 0.2-0.86 0.02-0.09 0.02-0.18 0.08-0.25-0.06 0.36-0.17 0.71-0.24 1.07 0.36 0.01 0.73 0 1.1 0.01 0.11 0 0.21 0.03 0.32 0.07-0.09-0.13-0.26-0.14-0.4-0.15-0.32-0.01-0.63 0-0.94-0.01 0.08-0.36 0.17-0.72 0.25-1.08z" fill="#1f1a1a" image-rendering="optimizeQuality"/>
   <path class="fil76" d="m-346.41 486.3c0.01-0.01 0.03-0.01 0.04-0.01-0.06 0.33-0.12 0.66-0.17 0.99 0.4 0.03 0.85-0.1 1.2 0.15 0.01 0.02 0.02 0.03 0.03 0.04 0.01-0.01 0.01-0.03 0.01-0.04 0.14-0.12 0.33-0.15 0.5-0.15 0.24-0.01 0.47 0 0.71 0-0.05-0.33-0.12-0.66-0.17-0.99 0.01 0 0.03 0 0.04 0.01 0.08 0.35 0.17 0.71 0.25 1.06-0.32 0.01-0.63-0.01-0.95 0.01-0.15 0-0.3 0.04-0.39 0.17-0.09-0.11-0.22-0.16-0.36-0.17-0.33-0.02-0.66 0-0.99-0.01 0.08-0.36 0.17-0.71 0.25-1.06z" fill="#a9a9a9" image-rendering="optimizeQuality"/>
   <path class="fil77" d="m-344.19 486.3c0.05 0.01 0.08 0.05 0.1 0.09 0.05 0.37 0.17 0.72 0.24 1.08-0.37 0.01-0.73 0-1.1 0.01-0.11 0-0.22 0.03-0.32 0.07 0.08-0.13 0.24-0.14 0.38-0.15 0.32-0.01 0.64 0 0.96-0.01-0.08-0.36-0.17-0.73-0.26-1.09z" fill="#aaa8a8" image-rendering="optimizeQuality"/>
   <path class="fil78" d="m-346.87 486.47h0.09 0.02c-0.11 0.44-0.24 0.89-0.36 1.33h3.62c-0.1-0.43-0.24-0.86-0.34-1.3v-0.03h0.08c0.13 0.43 0.23 0.87 0.36 1.31 0 0.03-0.01 0.07-0.01 0.11-1.27 0-2.53 0.01-3.8 0-0.01-0.03-0.03-0.05-0.04-0.07 0.13-0.45 0.24-0.9 0.38-1.35z" fill="#737070" image-rendering="optimizeQuality"/>
   <path class="fil79" d="m-346.76 486.47c0.04 0 0.07 0 0.1 0.01-0.1 0.11-0.11 0.26-0.16 0.4-0.07 0.27-0.15 0.54-0.21 0.81 1.14 0.01 2.28 0.01 3.43 0-0.08-0.34-0.18-0.67-0.27-1.01-0.02-0.08-0.06-0.15-0.11-0.21 0.05 0 0.1 0.01 0.14 0.03 0.1 0.44 0.24 0.87 0.34 1.3h-3.62c0.12-0.44 0.25-0.89 0.36-1.33z" fill="#fdfdfe" image-rendering="optimizeQuality"/>
   <path class="fil80" d="m-348.77 487.43c0.06-0.01 0.12-0.01 0.17-0.01 0 0.07 0.02 0.14 0 0.21-0.03 0.07-0.16 0.05-0.16-0.03-0.01-0.06-0.01-0.12-0.01-0.17z" fill="#fbfdfb" image-rendering="optimizeQuality"/>
   <path class="fil81" d="m-349.18 487.44c0.06 0 0.12-0.01 0.19 0 0 0.07 0.01 0.15-0.01 0.22-0.03 0.07-0.14 0.06-0.17-0.01-0.02-0.07-0.01-0.14-0.01-0.21z" fill="#fbfbfc" image-rendering="optimizeQuality"/>
   <path class="fil82" d="m-343.4 487.78c0.01 0.04 0.02 0.08 0.03 0.11-0.03 0.02-0.05 0.03-0.08 0.02-1.27 0-2.55 0.01-3.82 0 0.01-0.03 0.01-0.06 0.02-0.09 0.01 0.02 0.03 0.04 0.04 0.07 1.27 0.01 2.53 0 3.8 0 0-0.04 0.01-0.08 0.01-0.11z" fill="#49889c" image-rendering="optimizeQuality"/>
   <path class="fil83" d="m-342.04 487.79c0.15-0.03 0.31 0 0.44 0.06 0.11 0.04 0.09 0.22-0.02 0.24-0.14 0.03-0.31 0-0.44-0.07-0.09-0.05-0.08-0.2 0.02-0.23z" fill="#fcfdfd" image-rendering="optimizeQuality"/>
   <path class="fil84" d="m-346.2 488.32c0.1-0.02 0.15-0.14 0.25-0.13v0.47c0.05 0 0.1 0 0.15 0.01 0.01 0.02 0.01 0.04 0.01 0.07-0.14 0.01-0.28 0-0.42 0v-0.08h0.16v-0.33c-0.04 0.03-0.09 0.06-0.14 0.08-0.01-0.03-0.01-0.06-0.01-0.09z" fill="#f8fdfb" image-rendering="optimizeQuality"/>
   <path class="fil85" d="m-345.72 488.25c0.1-0.1 0.29-0.07 0.35 0.06 0.05 0.12 0.04 0.27-0.04 0.38-0.09 0.1-0.27 0.08-0.33-0.04 0.02-0.01 0.04-0.02 0.07-0.03 0.11 0.13 0.25 0 0.24-0.13-0.06 0.04-0.14 0.08-0.22 0.05-0.11-0.04-0.14-0.2-0.07-0.29zm0.1 0.03c-0.05 0.03-0.06 0.11-0.02 0.16 0.06 0.06 0.18 0.03 0.19-0.06s-0.1-0.15-0.17-0.1z" fill="#f8fcf9" image-rendering="optimizeQuality"/>
   <path class="fil86" d="m-344.83 488.32c0.1-0.02 0.15-0.14 0.25-0.13v0.47h0.15v0.08c-0.14 0.01-0.28 0.01-0.42 0 0-0.03 0.01-0.05 0.01-0.08h0.16v-0.33l-0.15 0.09v-0.1z" fill="#f9fdfa" image-rendering="optimizeQuality"/>
   <path class="fil87" d="m-345.29 488.2h0.39c0.01 0.08-0.05 0.13-0.09 0.2-0.06 0.1-0.07 0.22-0.08 0.34h-0.12c0.01-0.17 0.09-0.32 0.2-0.46h-0.3v-0.08z" fill="#f9fcfa" image-rendering="optimizeQuality"/>
   <path class="fil88" d="m-345.62 488.28c0.07-0.05 0.18 0.01 0.17 0.1s-0.13 0.12-0.19 0.06c-0.04-0.05-0.03-0.13 0.02-0.16z" fill="#0676ae" image-rendering="optimizeQuality"/>
   <path class="fil89" d="m-348.82 488.49c0.1-0.01 0.2-0.02 0.3-0.02l-0.24 0.18c-0.02-0.06-0.04-0.11-0.06-0.16z" fill="#f8fafb" image-rendering="optimizeQuality"/>
   <path class="fil90" d="m-342.41 488.78c0.05-0.07 0.17-0.01 0.16 0.07-0.02 0.08-0.07 0.13-0.11 0.2-0.05-0.04-0.11-0.07-0.16-0.11 0.03-0.05 0.06-0.11 0.11-0.16z" fill="#f9fcfc" image-rendering="optimizeQuality"/>
   <path class="fil91" d="m-347.51 490.08c0.06-0.07 0.13-0.15 0.21-0.21-0.02 0.1-0.04 0.19-0.07 0.29-0.05-0.03-0.1-0.05-0.14-0.08z" fill="#f7faf9" image-rendering="optimizeQuality"/>
   <path class="fil92" d="m-346.43 490.13c0.37 0 0.22 0.7-0.12 0.55 0.03-0.18 0.08-0.36 0.12-0.55z" fill="#fdfdfd" image-rendering="optimizeQuality"/>
   <path class="fil93" d="m-345.41 490.25c0.07 0 0.14-0.01 0.2 0 0.08 0.02 0.09 0.14 0.03 0.17-0.07 0.04-0.15 0.02-0.23 0.03v-0.2z" fill="#fefdfd" image-rendering="optimizeQuality"/>
   <path class="fil94" d="m-347.76 492.08c0.16-0.02 0.31-0.05 0.47-0.07 0 0.05 0.01 0.09 0.01 0.14-0.04 0-0.08 0.01-0.13 0.02 0.02 0.14 0.04 0.29 0.07 0.43-0.07 0.02-0.13 0.03-0.2 0.03-0.02-0.14-0.04-0.29-0.06-0.43-0.05 0-0.09 0.01-0.14 0.02-0.01-0.05-0.01-0.09-0.02-0.14z" fill="#9c2a2b" image-rendering="optimizeQuality"/>
   <path class="fil95" d="m-349.04 492.5c0.21-0.07 0.43-0.16 0.66-0.11 0.11 0.03 0.1 0.16 0.1 0.25-0.12 0.2-0.38 0.18-0.56 0.29-0.12 0.05-0.05 0.18 0 0.26-0.08-0.04-0.17-0.09-0.2-0.19-0.04-0.16-0.01-0.33 0-0.5zm6.69-0.11c0.22-0.05 0.45 0.04 0.66 0.11 0.01 0.22 0.1 0.56-0.17 0.67 0.04-0.09 0.06-0.24-0.08-0.27-0.16-0.07-0.38-0.08-0.49-0.23-0.02-0.1-0.04-0.24 0.08-0.28z" fill="#75292a" image-rendering="optimizeQuality"/>
  </g>
 </g>
</svg>
